<?xml version="1.0" standalone="no"?>
<!DOCTYPE svg PUBLIC "-//W3C//DTD SVG 20010904//EN"
 "http://www.w3.org/TR/2001/REC-SVG-20010904/DTD/svg10.dtd">
<svg version="1.0" xmlns="http://www.w3.org/2000/svg"
 width="1156.000000pt" height="638.000000pt" viewBox="0 0 1156.000000 638.000000"
 preserveAspectRatio="xMidYMid meet">

<g transform="translate(0.000000,638.000000) scale(0.100000,-0.100000)"
fill="#000000" stroke="none">
<path d="M1487 6333 c-17 -4 -18 -14 -15 -82 l3 -78 -77 1 c-87 1 -120 -15
-150 -75 -22 -42 -25 -184 -4 -232 29 -69 94 -92 176 -63 53 18 63 20 55 6 -4
-6 5 -10 19 -10 l26 0 0 270 c0 149 -3 269 -7 269 -5 -1 -16 -3 -26 -6z m-18
-209 c3 -3 4 -215 2 -256 -1 -11 -99 -37 -123 -33 -35 7 -68 51 -69 93 -5 130
8 177 55 198 27 12 121 11 135 -2z"/>
<path d="M94 6311 c-2 -2 -4 -118 -4 -258 l0 -253 25 0 25 0 0 110 0 110 110
0 c103 0 110 1 110 20 0 19 -7 20 -110 20 l-110 0 0 105 0 105 130 0 c123 0
130 1 130 20 0 11 -6 20 -12 21 -59 3 -291 3 -294 0z"/>
<path d="M2337 6298 c-8 -27 -1 -38 24 -38 14 0 19 7 19 30 0 23 -5 30 -19 30
-11 0 -21 -9 -24 -22z"/>
<path d="M4580 6291 c0 -27 4 -31 26 -31 22 0 25 4 22 28 -2 19 -9 28 -25 30
-20 3 -23 -1 -23 -27z"/>
<path d="M6151 6312 c-6 -2 -11 -12 -11 -22 0 -17 10 -20 83 -22 l82 -3 0
-232 0 -233 23 0 22 0 0 235 0 235 84 0 c68 0 84 3 82 15 -1 8 -5 18 -9 22 -7
7 -335 12 -356 5z"/>
<path d="M7597 6313 c-4 -3 -7 -17 -7 -30 0 -18 5 -23 25 -23 21 0 25 5 25 30
0 22 -5 30 -18 30 -10 0 -22 -3 -25 -7z"/>
<path d="M8663 6305 c-17 -7 -39 -25 -49 -40 -20 -31 -23 -120 -5 -154 15 -27
74 -55 153 -71 82 -16 108 -40 108 -98 0 -31 -7 -56 -20 -72 -18 -24 -23 -25
-135 -25 -110 0 -116 -1 -113 -20 3 -17 14 -21 78 -27 171 -17 240 25 240 147
0 88 -33 118 -162 144 -96 20 -132 68 -103 139 20 46 52 55 163 48 86 -6 92
-5 92 13 0 13 -9 20 -31 25 -55 11 -183 6 -216 -9z"/>
<path d="M10410 6291 c0 -26 4 -31 23 -31 18 0 22 5 22 28 -1 20 -7 28 -23 30
-19 3 -22 -2 -22 -27z"/>
<path d="M3812 6058 l3 -253 25 0 25 0 3 253 2 252 -30 0 -30 0 2 -252z"/>
<path d="M4340 6230 c0 -57 -1 -60 -25 -60 -18 0 -25 -5 -25 -20 0 -15 7 -20
25 -20 l25 0 0 -107 c1 -186 21 -233 99 -233 57 0 81 10 81 32 0 18 -4 20 -44
14 -37 -6 -48 -4 -65 13 -19 19 -21 33 -21 151 l0 130 60 0 c53 0 60 2 60 20
0 18 -7 20 -60 20 l-60 0 0 60 c0 57 -1 60 -25 60 -24 0 -25 -3 -25 -60z"/>
<path d="M4757 6282 c-3 -4 -4 -31 -3 -60 3 -51 2 -52 -26 -52 -21 0 -28 -5
-28 -20 0 -15 7 -20 28 -20 l28 0 -4 -92 c-5 -115 4 -191 26 -218 33 -40 152
-39 152 0 0 18 -6 20 -52 18 -71 -4 -78 11 -78 170 l0 122 66 0 c57 0 65 2 62
18 -3 14 -16 18 -66 20 l-62 3 0 59 c0 53 -2 60 -19 60 -11 0 -22 -3 -24 -8z"/>
<path d="M5400 6230 l0 -60 -31 0 c-24 0 -30 -4 -27 -17 2 -11 14 -19 31 -21
l27 -3 0 -134 c0 -144 8 -176 47 -194 51 -23 139 -7 127 24 -4 11 -16 13 -48
9 -32 -5 -46 -2 -59 11 -18 18 -19 27 -22 183 l-2 102 64 0 c56 0 63 2 63 20
0 18 -7 20 -64 20 -63 0 -63 0 -60 28 7 50 -5 92 -26 92 -18 0 -20 -7 -20 -60z"/>
<path d="M520 6162 c-56 -28 -74 -70 -74 -176 0 -147 36 -191 154 -191 117 0
153 44 154 185 0 140 -46 200 -154 200 -25 0 -61 -8 -80 -18z m121 -32 c51
-14 64 -45 64 -149 -1 -103 -12 -126 -66 -143 -33 -10 -48 -9 -82 3 -54 18
-71 62 -64 166 6 87 18 110 60 122 43 12 46 12 88 1z"/>
<path d="M940 6163 c-31 -10 -45 -12 -48 -4 -2 6 -12 11 -23 11 -18 0 -19 -9
-19 -185 l0 -185 23 0 c22 0 22 1 21 150 l-2 151 31 16 c17 8 52 16 79 16 78
1 82 -8 86 -183 l3 -150 26 0 25 0 -4 153 c-4 165 -10 187 -58 212 -37 19 -82
18 -140 -2z"/>
<path d="M1675 6172 c-27 -5 -41 -13 -43 -25 -3 -16 5 -17 81 -15 100 3 127
-11 127 -68 0 -37 -2 -38 -104 -49 -32 -4 -69 -11 -81 -17 -39 -18 -59 -78
-44 -133 20 -70 83 -91 184 -61 42 13 52 13 76 0 15 -7 35 -14 44 -14 22 0 18
38 -5 45 -22 7 -21 5 -21 142 0 158 -20 193 -115 198 -32 2 -77 0 -99 -3z
m163 -249 l-3 -68 -50 -13 c-69 -17 -110 -9 -124 27 -14 31 -6 74 15 92 12 10
49 17 152 28 10 1 12 -16 10 -66z"/>
<path d="M2560 6168 c-19 -7 -44 -28 -56 -46 -40 -58 -43 -193 -7 -269 27 -58
140 -82 213 -45 55 27 72 68 73 170 0 98 -16 151 -56 177 -33 21 -123 28 -167
13z m142 -55 c10 -9 23 -35 29 -57 12 -45 6 -154 -11 -185 -25 -48 -146 -51
-177 -5 -21 32 -28 147 -14 202 10 34 19 47 44 58 38 17 103 10 129 -13z"/>
<path d="M2975 6165 c-47 -17 -58 -19 -50 -5 4 6 -5 10 -19 10 l-26 0 0 -186
0 -185 23 3 c22 3 22 6 25 155 l3 153 54 16 c65 18 104 10 122 -27 8 -15 13
-72 13 -161 l0 -138 25 0 25 0 0 126 c0 135 -12 204 -40 229 -25 23 -107 28
-155 10z"/>
<path d="M3345 6167 c-64 -30 -86 -78 -86 -189 0 -156 53 -201 215 -183 55 5
66 10 66 25 0 17 -9 18 -91 18 -72 0 -94 3 -110 17 -20 19 -45 93 -34 104 4 3
58 6 121 6 132 0 138 4 128 75 -8 56 -28 95 -58 115 -34 22 -115 28 -151 12z
m109 -38 c29 -14 59 -70 54 -102 -3 -21 -8 -22 -96 -22 -52 0 -98 3 -104 6
-14 9 8 82 29 101 34 29 76 35 117 17z"/>
<path d="M4033 6169 c-43 -13 -73 -53 -73 -99 0 -59 23 -78 115 -96 44 -9 88
-23 98 -32 21 -19 22 -51 1 -80 -15 -22 -22 -23 -110 -20 -91 3 -94 2 -94 -19
0 -19 7 -22 73 -28 129 -12 182 16 194 104 8 58 -29 93 -117 110 -78 15 -110
34 -110 64 1 51 40 67 142 58 67 -6 85 1 70 26 -10 15 -150 24 -189 12z"/>
<path d="M5701 6162 c-63 -31 -76 -61 -76 -170 0 -160 29 -197 152 -197 123 0
158 48 151 210 -3 75 -8 97 -26 123 -37 51 -135 68 -201 34z m153 -52 c41 -40
40 -211 -2 -253 -32 -31 -123 -31 -154 1 -20 19 -23 35 -26 110 -5 137 28 179
128 165 19 -2 43 -13 54 -23z"/>
<path d="M6570 6163 c-53 -27 -80 -89 -80 -183 1 -161 59 -208 234 -184 36 5
46 11 46 25 0 17 -8 19 -90 17 -80 -3 -92 -1 -111 19 -15 15 -22 35 -23 63
l-1 42 120 3 120 3 3 35 c5 53 -14 110 -46 141 -39 36 -121 46 -172 19z m114
-33 c29 -11 56 -57 56 -97 l0 -28 -100 0 -100 0 0 27 c0 78 71 126 144 98z"/>
<path d="M6941 6162 c-64 -32 -76 -60 -76 -175 0 -151 35 -197 148 -197 74 0
105 9 100 30 -4 14 -16 17 -72 17 -37 0 -77 5 -89 12 -29 15 -45 80 -40 163 3
58 8 72 30 95 25 24 33 26 97 25 63 -1 71 1 71 17 0 33 -113 42 -169 13z"/>
<path d="M7290 6164 c-31 -11 -45 -13 -48 -5 -2 6 -12 11 -23 11 -18 0 -19 -9
-19 -185 0 -178 1 -185 20 -185 19 0 20 7 20 153 l0 153 36 13 c39 14 90 17
122 7 32 -10 42 -59 42 -197 l0 -129 25 0 25 0 0 126 c0 135 -12 204 -40 229
-26 23 -107 28 -160 9z"/>
<path d="M7823 6173 c-64 -12 -98 -92 -91 -213 8 -126 48 -170 155 -170 68 0
93 9 93 32 0 17 -6 19 -52 15 -115 -9 -148 24 -148 148 0 124 35 158 148 147
47 -4 52 -3 52 15 0 16 -9 21 -46 27 -49 6 -74 6 -111 -1z"/>
<path d="M8120 6163 c-52 -27 -72 -76 -72 -178 0 -102 20 -151 72 -177 44 -22
107 -23 159 -2 57 23 75 65 75 179 1 138 -32 183 -141 192 -44 3 -67 0 -93
-14z m134 -37 c41 -17 56 -55 56 -145 0 -90 -22 -132 -74 -145 -51 -12 -108 6
-126 39 -8 16 -14 59 -14 110 -1 70 2 88 20 112 31 42 82 52 138 29z"/>
<path d="M9490 6165 c-22 -10 -36 -12 -38 -5 -2 5 -15 10 -28 10 l-24 0 0
-271 0 -270 23 3 c20 3 22 9 25 85 l3 81 54 -5 c39 -4 68 -1 101 12 61 23 86
75 86 179 1 130 -34 186 -119 193 -30 2 -61 -3 -83 -12z m126 -60 c28 -30 38
-123 22 -190 -11 -43 -18 -53 -51 -68 -29 -15 -49 -17 -87 -12 l-50 7 0 133 0
133 33 11 c77 24 101 22 133 -14z"/>
<path d="M9880 6174 c-74 -27 -100 -67 -107 -166 -13 -174 45 -230 218 -213
59 6 69 10 69 26 0 18 -6 19 -77 16 -43 -2 -91 1 -106 6 -31 10 -57 53 -57 94
l0 28 125 0 125 0 0 47 c0 60 -24 122 -56 143 -26 17 -108 29 -134 19z m118
-69 c14 -17 22 -39 22 -63 l0 -37 -101 0 -101 0 5 38 c12 90 117 127 175 62z"/>
<path d="M10310 6170 c-14 -4 -40 -15 -58 -24 -34 -17 -47 -15 -47 7 0 7 -10
13 -22 15 l-23 3 0 -185 0 -186 25 0 26 0 -2 134 c0 74 2 139 5 144 3 5 32 19
65 32 38 14 61 29 64 41 6 24 -1 28 -33 19z"/>
<path d="M10624 6161 c-54 -25 -74 -73 -74 -179 0 -136 45 -191 155 -191 110
0 155 55 155 191 0 106 -20 154 -74 179 -23 10 -59 19 -81 19 -22 0 -58 -9
-81 -19z m137 -36 c40 -21 49 -50 49 -150 0 -74 -3 -87 -24 -112 -21 -24 -31
-27 -80 -27 -45 0 -61 4 -79 22 -20 20 -22 32 -22 126 0 132 10 146 108 155
10 0 31 -6 48 -14z"/>
<path d="M11077 6160 c-27 -10 -55 -24 -63 -30 -12 -10 -14 -8 -14 14 0 22 -4
27 -21 24 -19 -3 -20 -9 -20 -183 0 -174 1 -180 20 -183 20 -3 21 1 21 136 l0
139 59 27 c32 14 64 26 70 26 6 0 11 11 11 25 0 29 -1 30 -63 5z"/>
<path d="M11277 6170 c-66 -20 -97 -80 -97 -190 0 -152 48 -198 194 -186 73 5
102 17 90 37 -2 4 -42 7 -88 6 -99 -2 -131 14 -142 68 -11 62 -5 66 93 60 48
-2 103 -1 122 2 l34 6 -6 59 c-3 32 -13 70 -22 84 -36 55 -105 76 -178 54z
m126 -58 c10 -11 21 -38 24 -61 6 -47 19 -42 -119 -45 l-78 -1 0 27 c0 68 52
113 119 103 19 -2 43 -13 54 -23z"/>
<path d="M1970 6150 c0 -18 8 -20 109 -22 l109 -3 -109 -144 c-60 -79 -109
-152 -109 -162 0 -18 10 -19 140 -19 133 0 140 1 140 20 0 19 -7 20 -105 20
-58 0 -105 2 -105 5 0 3 47 68 105 145 58 77 105 148 105 160 0 19 -6 20 -140
20 -133 0 -140 -1 -140 -20z"/>
<path d="M2338 6164 c-9 -8 -10 -327 -2 -347 3 -9 15 -17 25 -17 18 0 19 10
19 185 0 173 -1 185 -18 185 -10 0 -21 -3 -24 -6z"/>
<path d="M4580 5985 l0 -185 25 0 25 0 0 185 0 185 -25 0 -25 0 0 -185z"/>
<path d="M4992 6013 c3 -173 10 -195 62 -213 40 -14 76 -13 125 5 22 8 41 10
41 5 0 -6 11 -10 25 -10 l25 0 0 185 0 185 -24 0 -24 0 0 -152 0 -151 -27 -15
c-41 -21 -114 -18 -138 7 -19 18 -21 33 -21 165 l-1 146 -23 0 -24 0 4 -157z"/>
<path d="M7590 5985 l0 -185 25 0 25 0 0 185 0 185 -25 0 -25 0 0 -185z"/>
<path d="M9012 6016 c3 -138 5 -158 24 -183 36 -48 103 -54 198 -17 14 5 17 4
12 -4 -5 -8 1 -12 18 -12 l26 0 0 185 0 185 -22 0 c-23 0 -23 -1 -21 -149 1
-111 -2 -152 -11 -160 -7 -6 -37 -15 -66 -21 -43 -8 -58 -7 -77 5 -32 21 -38
52 -38 197 0 127 0 128 -23 128 l-23 0 3 -154z"/>
<path d="M10410 5985 l0 -185 26 0 25 0 -2 185 -1 185 -24 0 -24 0 0 -185z"/>
<path d="M1893 5593 c-10 -3 -13 -67 -13 -269 l0 -264 25 0 25 0 -2 267 c-2
167 -7 267 -13 269 -5 1 -16 0 -22 -3z"/>
<path d="M4292 5513 l3 -77 -75 0 c-126 -1 -162 -39 -168 -175 -5 -107 10
-157 57 -188 40 -27 73 -29 138 -7 33 11 48 13 51 5 2 -6 12 -11 23 -11 18 0
19 11 19 265 l0 265 -26 0 -26 0 4 -77z m-23 -122 c24 -7 25 -8 23 -121 -1
-63 -2 -123 -2 -132 0 -21 -83 -48 -123 -41 -46 9 -61 37 -66 120 -5 101 11
150 52 168 34 15 77 17 116 6z"/>
<path d="M40 5553 c0 -22 4 -23 80 -23 l80 0 0 -235 0 -235 25 0 25 0 0 235 0
235 80 0 c76 0 80 1 80 23 l0 22 -185 0 -185 0 0 -22z"/>
<path d="M2804 5553 c2 -20 10 -29 25 -31 18 -3 21 2 21 27 0 26 -4 31 -24 31
-21 0 -24 -4 -22 -27z"/>
<path d="M3509 5570 c0 -3 -1 -119 -2 -257 l-2 -253 23 0 22 0 0 258 c0 251
-1 258 -20 258 -11 0 -20 -3 -21 -6z"/>
<path d="M5690 5550 c0 -23 4 -30 20 -30 16 0 20 7 20 30 0 23 -4 30 -20 30
-16 0 -20 -7 -20 -30z"/>
<path d="M6464 5566 c-73 -32 -99 -113 -92 -283 5 -122 25 -175 79 -207 62
-37 225 -30 239 10 8 20 6 21 -89 16 -93 -4 -98 -4 -128 22 -41 34 -53 78 -53
189 0 108 14 168 47 199 23 21 32 23 128 21 89 -1 103 1 101 15 -2 8 -11 19
-22 23 -32 13 -177 9 -210 -5z"/>
<path d="M8017 5573 c-2 -5 -2 -14 -1 -20 1 -7 2 -17 3 -23 0 -5 10 -10 21
-10 16 0 20 7 20 30 0 23 -5 30 -19 30 -11 0 -22 -3 -24 -7z"/>
<path d="M5200 5491 c0 -58 -1 -60 -27 -63 -37 -4 -37 -32 -1 -36 l27 -3 3
-144 c3 -123 6 -146 22 -164 35 -38 161 -41 154 -3 -3 13 -14 17 -50 17 -75 1
-78 8 -78 161 l0 134 60 0 c53 0 60 2 60 20 0 18 -7 20 -60 20 l-60 0 0 60 c0
57 -1 60 -25 60 -24 0 -25 -3 -25 -59z"/>
<path d="M7780 5490 l0 -60 -30 0 c-23 0 -30 -4 -30 -20 0 -16 7 -20 30 -20
l30 0 0 -135 c0 -160 10 -190 65 -201 55 -10 105 3 105 27 0 16 -6 20 -27 19
-68 -5 -82 -1 -89 25 -3 14 -7 79 -8 145 l-1 120 63 0 c55 0 62 2 62 20 0 16
-8 19 -62 22 l-63 3 3 35 c4 52 -5 80 -28 80 -18 0 -20 -7 -20 -60z"/>
<path d="M475 5426 c-63 -28 -87 -79 -87 -186 0 -156 50 -199 208 -185 63 6
74 10 74 26 0 17 -8 19 -89 16 -76 -2 -92 1 -110 17 -21 19 -46 90 -37 105 3
4 60 9 127 9 67 1 123 3 126 5 9 10 -12 119 -29 147 -32 54 -117 75 -183 46z
m115 -41 c21 -11 32 -27 40 -56 6 -23 9 -46 7 -53 -3 -8 -35 -11 -103 -10
l-99 2 3 33 c7 82 79 122 152 84z"/>
<path d="M832 5425 c-47 -21 -72 -80 -72 -175 0 -93 13 -143 45 -168 30 -24
100 -35 160 -26 36 5 45 10 45 27 0 18 -5 19 -49 14 -69 -8 -118 7 -136 43
-20 39 -20 171 0 210 19 37 68 53 134 44 47 -6 51 -5 51 13 0 16 -9 22 -37 27
-59 9 -105 6 -141 -9z"/>
<path d="M1185 5425 c-24 -9 -41 -11 -43 -5 -2 6 -15 10 -28 10 l-24 0 0 -154
c0 -181 5 -216 31 -216 18 0 19 10 19 155 l0 154 56 17 c121 35 143 2 144
-213 0 -105 1 -113 19 -113 16 0 21 10 27 46 8 56 -3 226 -18 272 -18 57 -98
77 -183 47z"/>
<path d="M1560 5429 c-67 -27 -97 -102 -87 -216 12 -120 49 -158 156 -158 116
0 152 44 153 190 1 101 -20 151 -72 177 -38 20 -110 23 -150 7z m142 -57 c45
-44 47 -199 3 -249 -19 -23 -30 -26 -73 -25 -28 0 -60 6 -71 12 -37 19 -53
140 -30 223 8 29 19 42 42 53 41 18 104 11 129 -14z"/>
<path d="M2100 5422 c-52 -26 -73 -77 -73 -176 1 -145 38 -191 154 -191 117 0
153 45 153 190 1 73 -3 97 -19 125 -26 44 -76 70 -135 70 -25 0 -61 -8 -80
-18z m135 -36 c39 -17 55 -58 55 -147 0 -67 -15 -116 -40 -129 -22 -12 -120
-13 -136 -2 -37 24 -53 173 -25 239 20 49 82 65 146 39z"/>
<path d="M2480 5423 c-19 -10 -40 -29 -47 -43 -26 -52 -8 -160 29 -172 10 -4
10 -13 2 -39 -6 -19 -7 -44 -3 -56 6 -15 2 -27 -16 -43 -44 -42 -41 -127 7
-163 20 -15 41 -19 104 -18 98 1 140 14 159 51 15 30 20 96 9 125 -11 26 -60
45 -121 45 -76 0 -103 8 -103 30 0 41 11 50 62 50 59 0 100 19 116 55 15 32
16 100 2 126 -10 17 -7 19 25 19 28 0 35 4 35 20 0 17 -7 20 -47 20 -27 0 -77
3 -113 6 -51 4 -72 1 -100 -13z m140 -43 c11 -11 20 -30 21 -42 4 -83 -15
-108 -81 -108 -61 0 -90 22 -92 70 -2 75 20 98 95 99 24 1 44 -6 57 -19z m44
-323 c22 -16 24 -83 3 -104 -35 -36 -167 -33 -194 3 -19 26 -16 71 7 94 16 16
33 20 93 20 45 0 80 -5 91 -13z"/>
<path d="M3034 5426 c-70 -31 -105 -128 -85 -239 20 -113 68 -143 204 -132 67
6 77 10 77 26 0 18 -7 19 -90 17 -84 -2 -92 -1 -114 22 -13 14 -27 41 -30 61
-8 46 0 49 141 46 l103 -2 0 60 c0 43 -6 70 -20 93 -34 56 -118 77 -186 48z
m116 -41 c21 -11 32 -27 40 -56 6 -23 9 -46 7 -53 -3 -8 -36 -11 -103 -10
l-99 1 1 32 c4 80 81 124 154 86z"/>
<path d="M3760 5425 c-27 -9 -46 -11 -48 -5 -2 6 -12 10 -23 10 -18 0 -19 -9
-19 -185 0 -178 1 -185 20 -185 11 0 20 3 20 8 0 4 1 72 3 152 l2 145 29 13
c15 8 50 15 78 16 41 1 53 -3 69 -23 17 -20 19 -40 19 -167 l0 -144 25 0 25 0
0 143 c0 115 -3 149 -18 177 -29 59 -89 74 -182 45z"/>
<path d="M4879 5424 c-41 -17 -59 -48 -59 -99 0 -57 34 -79 153 -100 51 -8 81
-38 72 -73 -11 -46 -31 -54 -130 -51 -84 3 -90 2 -90 -16 0 -17 10 -21 78 -29
63 -7 86 -5 120 8 52 20 69 45 69 104 0 55 -30 87 -90 97 -20 4 -57 12 -82 19
-41 10 -45 15 -48 44 -6 60 23 73 138 63 67 -6 70 -6 70 15 0 18 -7 22 -52 28
-77 9 -109 7 -149 -10z"/>
<path d="M5590 5433 c-8 -3 -33 -14 -54 -24 -39 -19 -51 -18 -51 4 0 7 -10 13
-22 15 l-23 3 0 -185 0 -186 24 0 24 0 1 138 c2 154 -1 149 82 178 39 14 49
22 49 41 0 24 -4 26 -30 16z"/>
<path d="M5911 5422 c-64 -32 -76 -60 -76 -180 0 -96 2 -110 23 -139 30 -43
82 -57 178 -48 63 6 74 10 74 26 0 17 -8 18 -91 16 -88 -2 -92 -1 -115 26 -17
20 -24 40 -24 68 l0 40 120 -5 c111 -4 120 -3 125 15 9 29 -5 103 -26 139 -35
56 -122 76 -188 42z m114 -32 c29 -11 58 -68 53 -104 -3 -20 -8 -21 -95 -19
-51 1 -97 4 -102 7 -11 7 2 71 20 92 26 32 77 42 124 24z"/>
<path d="M6886 5415 c-33 -14 -61 -25 -63 -25 -2 0 -3 9 -3 20 0 15 -7 20 -25
20 l-25 0 0 -154 c0 -181 5 -216 31 -216 18 0 19 10 19 139 l0 138 59 27 c32
14 64 26 70 26 6 0 11 11 11 25 0 30 0 30 -74 0z"/>
<path d="M7080 5422 c-58 -29 -75 -71 -75 -184 0 -110 13 -139 78 -171 32 -16
50 -18 122 -12 74 6 85 10 85 26 0 18 -7 19 -82 17 -46 -1 -93 2 -106 6 -42
14 -70 107 -36 120 9 3 65 6 125 6 l109 0 0 48 c-1 68 -31 129 -74 147 -47 20
-103 19 -146 -3z m141 -52 c25 -24 30 -37 27 -66 l-3 -37 -98 -1 c-108 -1
-111 1 -86 74 22 62 111 79 160 30z"/>
<path d="M7430 5431 c-23 -4 -36 -12 -38 -25 -4 -18 1 -19 72 -12 104 9 136
-7 136 -71 0 -36 -3 -38 -103 -48 -103 -10 -130 -35 -129 -118 1 -87 65 -121
173 -95 54 13 67 13 96 2 18 -8 37 -14 43 -14 19 0 10 37 -12 52 -21 14 -22
21 -20 129 3 127 -11 173 -58 196 -26 13 -99 15 -160 4z m168 -248 l-3 -68
-59 -14 c-52 -12 -63 -12 -85 0 -21 12 -27 23 -29 60 -4 57 9 69 86 79 102 13
93 18 90 -57z"/>
<path d="M8580 5423 c-51 -26 -80 -90 -80 -173 0 -165 60 -217 223 -194 47 7
63 13 65 27 3 16 -5 17 -80 15 -46 -1 -93 2 -106 6 -27 9 -52 54 -52 96 l0 30
126 0 127 0 -6 59 c-5 63 -27 110 -59 130 -36 22 -119 24 -158 4z m143 -51
c11 -11 21 -39 24 -65 l5 -46 -101 2 -101 2 0 30 c1 38 21 74 51 92 32 18 97
10 122 -15z"/>
<path d="M2805 5245 l0 -185 23 0 22 0 0 185 0 185 -22 0 -23 0 0 -185z"/>
<path d="M4450 5284 c0 -167 11 -205 62 -223 42 -15 69 -14 125 5 33 11 48 13
51 5 2 -6 12 -11 23 -11 18 0 19 9 19 185 l0 185 -22 0 c-23 0 -23 -1 -22
-151 l1 -150 -30 -15 c-46 -24 -114 -22 -140 5 -20 19 -22 33 -25 166 -4 134
-6 145 -23 145 -18 0 -19 -10 -19 -146z"/>
<path d="M5690 5245 l0 -185 24 0 c18 0 23 5 21 18 -2 9 -4 92 -4 185 -1 160
-2 167 -21 167 -19 0 -20 -7 -20 -185z"/>
<path d="M8014 5416 c-3 -7 -4 -89 -2 -182 3 -167 3 -169 26 -172 l22 -3 0
185 c0 180 -1 186 -20 186 -11 0 -23 -6 -26 -14z"/>
<path d="M8172 5298 c21 -73 46 -157 54 -185 l15 -53 49 0 49 0 25 83 c87 289
86 282 64 285 -12 2 -24 -1 -27 -7 -4 -6 -27 -81 -52 -166 -32 -114 -48 -155
-58 -153 -10 2 -30 59 -60 166 -44 157 -46 162 -71 162 l-27 0 39 -132z"/>
<path d="M7685 4556 c-171 -27 -288 -86 -382 -191 -135 -151 -189 -364 -200
-780 -13 -507 48 -800 201 -972 176 -197 439 -239 990 -157 l108 17 -4 49 c-3
26 -7 50 -9 52 -2 1 -76 -8 -164 -22 -213 -33 -508 -37 -600 -9 -204 64 -315
192 -369 429 -29 130 -39 255 -38 518 0 453 50 674 184 817 59 61 114 94 207
124 128 41 417 35 703 -15 86 -14 88 -13 88 61 0 38 2 37 -145 57 -256 36
-434 43 -570 22z"/>
<path d="M90 3490 l0 -1050 55 0 55 0 0 475 0 475 470 0 470 0 0 50 0 50 -470
0 -470 0 2 471 3 470 525 -1 c289 0 540 2 558 6 31 6 32 8 32 55 l0 49 -615 0
-615 0 0 -1050z"/>
<path d="M1620 3506 c0 -569 3 -1041 6 -1050 5 -12 20 -16 60 -16 l54 0 0
1050 0 1050 -60 0 -60 0 0 -1034z"/>
<path d="M2012 4488 c4 -63 -45 -55 386 -57 l312 -1 0 -995 0 -995 55 0 55 0
0 995 0 995 308 1 c424 2 376 -6 380 57 l3 52 -751 0 -751 0 3 -52z"/>
<path d="M4095 4529 c-200 -26 -350 -116 -404 -241 -63 -148 -59 -393 9 -534
67 -139 209 -215 490 -264 375 -65 467 -96 545 -182 63 -71 80 -127 80 -273 0
-68 -6 -144 -14 -175 -44 -176 -144 -275 -318 -316 -86 -20 -305 -20 -513 0
-327 32 -296 32 -303 5 -14 -50 -8 -78 16 -84 75 -16 413 -39 587 -39 185 -1
213 1 283 22 244 70 348 209 377 500 20 197 -13 340 -100 436 -91 99 -221 149
-525 201 -356 61 -462 116 -515 267 -26 74 -36 217 -20 293 31 154 120 235
296 269 67 14 192 17 797 19 l717 2 0 -997 0 -998 55 0 55 0 0 995 c0 789 3
995 13 995 6 0 162 0 345 1 l332 0 0 55 0 54 -1107 -1 c-610 -1 -1139 -6
-1178 -10z"/>
<path d="M6640 3490 l0 -1050 55 0 55 0 0 1050 0 1050 -55 0 -55 0 0 -1050z"/>
<path d="M2179 1975 c-57 -25 -66 -51 -74 -220 -4 -82 -8 -159 -9 -170 -4 -34
-17 -119 -22 -142 -3 -16 0 -23 11 -23 16 0 36 -39 34 -68 -1 -9 -6 0 -11 21
-6 20 -13 37 -18 37 -21 0 -28 -29 -21 -91 4 -43 3 -66 -4 -66 -6 0 -9 20 -8
46 2 46 2 46 -7 11 -5 -19 -7 -46 -4 -58 3 -17 1 -22 -7 -16 -9 5 -10 2 -6
-10 4 -10 7 -23 7 -29 1 -7 7 2 15 18 12 25 14 26 9 5 -4 -14 -13 -34 -22 -45
-11 -15 -13 -16 -9 -3 4 10 2 20 -2 23 -8 4 -12 -8 -24 -75 -2 -8 -8 -24 -14
-35 -6 -11 -8 -26 -5 -34 3 -9 0 -11 -8 -6 -10 6 -12 4 -7 -7 3 -9 3 -19 0
-22 -12 -11 -9 -61 3 -71 7 -5 15 -20 19 -32 5 -18 3 -22 -10 -17 -10 4 -13
13 -10 25 4 11 2 19 -4 19 -6 0 -11 -6 -11 -13 0 -8 -10 -22 -22 -33 l-22 -19
18 28 c10 16 19 43 21 60 3 29 2 28 -17 -13 -11 -25 -20 -55 -20 -68 0 -12 -5
-25 -11 -29 -6 -4 -7 -1 -2 7 5 9 4 11 -3 6 -9 -5 -9 -13 0 -29 10 -20 9 -21
-5 -9 -13 11 -15 10 -10 -8 6 -23 -21 -60 -45 -60 -8 0 -12 -6 -9 -15 4 -8 1
-17 -5 -21 -7 -5 -8 -2 -4 7 4 8 -2 3 -13 -11 -11 -14 -18 -32 -15 -42 3 -9 0
-19 -6 -23 -6 -4 -9 -13 -6 -21 3 -8 0 -11 -10 -7 -9 3 -14 -1 -15 -13 0 -12
-3 -14 -6 -6 -3 7 5 24 18 38 12 13 20 26 17 29 -3 3 -24 -15 -46 -40 -26 -29
-48 -45 -59 -43 -9 2 -39 30 -66 63 -27 33 -52 59 -57 58 -4 -1 -11 4 -14 13
-4 9 -2 12 5 8 6 -3 4 5 -6 19 -9 14 -23 28 -32 31 -9 4 -13 13 -9 22 4 10 2
13 -6 8 -8 -5 -9 -2 -5 10 4 10 3 15 -3 11 -6 -3 -10 3 -10 14 0 12 -5 21 -11
21 -6 0 -8 -7 -5 -16 4 -9 2 -13 -5 -8 -8 4 -9 -1 -5 -17 6 -20 5 -21 -4 -7
-8 13 -8 23 0 39 9 15 8 24 -1 35 -6 8 -9 17 -5 21 3 3 6 0 6 -7 0 -7 3 -11 6
-8 3 3 -4 23 -15 44 -12 21 -21 44 -21 51 0 23 -18 13 -32 -17 -7 -16 -16 -30
-20 -30 -11 0 -10 4 7 36 9 19 11 32 5 38 -6 6 -10 15 -10 21 0 5 5 2 11 -7 5
-10 15 -18 21 -18 9 0 9 3 1 11 -6 6 -9 18 -6 27 5 11 3 13 -7 7 -10 -6 -12
-3 -8 13 4 12 2 22 -2 22 -5 0 -11 -8 -13 -17 -4 -16 -5 -16 -6 -1 0 9 3 19 8
22 5 3 0 36 -11 73 -10 38 -20 77 -22 88 -2 11 -7 34 -12 50 -4 17 -7 39 -6
50 2 17 1 18 -8 5 -8 -12 -9 -10 -5 10 3 14 1 50 -5 80 -5 30 -12 84 -14 119
-6 73 -13 101 -27 101 -5 0 -9 5 -9 11 0 6 7 9 15 5 16 -6 21 9 6 18 -4 3 -6
27 -3 54 2 31 0 52 -7 56 -6 4 -11 14 -11 22 0 8 5 12 10 9 6 -4 10 5 10 19 0
14 -4 26 -10 26 -5 0 -10 -5 -10 -11 0 -8 -5 -8 -15 1 -13 11 -15 8 -16 -16
l-1 -29 -7 30 c-9 37 -4 50 15 34 10 -8 18 -9 25 -2 7 7 0 20 -23 42 -43 40
-112 44 -146 8 -23 -24 -29 -47 -12 -47 5 0 7 6 4 14 -3 8 0 17 6 21 13 8 42
-14 37 -28 -4 -13 -49 -17 -63 -6 -6 5 -11 4 -12 -4 -1 -6 -3 -24 -6 -39 -3
-22 5 -158 18 -303 2 -16 4 -49 4 -72 2 -29 9 -50 24 -65 17 -17 18 -20 4 -15
-13 5 -16 3 -12 -11 3 -9 7 -35 11 -57 3 -22 10 -56 15 -75 5 -19 11 -48 14
-65 11 -58 32 -125 38 -119 12 11 30 -39 34 -91 4 -53 26 -119 44 -130 11 -7
3 23 -12 41 -5 7 -3 16 6 23 12 10 14 8 10 -11 l-5 -23 12 23 c14 26 33 24 36
-4 3 -18 2 -18 -6 1 -8 17 -10 18 -10 3 -1 -10 -5 -18 -11 -18 -5 0 -10 -7
-10 -15 0 -8 5 -15 12 -15 6 0 4 -6 -6 -13 -17 -12 -15 -18 25 -94 24 -45 47
-79 53 -76 5 4 6 1 1 -6 -4 -7 2 -22 16 -37 13 -13 24 -32 25 -41 2 -9 10 -23
19 -32 15 -15 17 -14 34 8 l18 24 -2 -46 c-2 -34 2 -50 16 -63 21 -19 26 -6 7
16 -7 8 -4 7 8 -3 12 -10 27 -16 35 -14 8 2 4 -2 -9 -7 -17 -8 -22 -17 -19
-33 2 -12 1 -24 -2 -26 -3 -2 0 -2 7 0 34 8 30 -11 -4 -23 -50 -17 -52 -17
-28 2 18 14 18 15 1 10 -46 -15 -68 -15 -29 0 38 14 57 34 32 34 -5 0 -10 -5
-10 -11 0 -6 -9 -8 -21 -4 -14 5 -19 3 -15 -3 4 -7 -3 -10 -16 -10 -73 4 -218
-3 -218 -11 0 -5 7 -11 16 -13 9 -2 -30 -3 -87 -4 -57 0 -78 1 -46 3 60 4 75
18 30 29 -37 10 -73 10 -103 1 l-25 -8 23 14 c23 13 23 13 -13 24 -19 6 -46
10 -60 8 -22 -2 -23 0 -13 14 11 13 8 13 -14 -2 -18 -11 -28 -13 -28 -6 0 8
-4 8 -15 -1 -17 -14 -34 -6 -31 17 2 9 12 17 24 18 12 1 19 -2 16 -6 -8 -14
18 -22 29 -9 9 9 9 11 1 7 -7 -4 -15 0 -18 9 -3 8 -10 12 -16 9 -5 -3 -10 -2
-10 3 0 12 -80 65 -87 59 -3 -3 8 -13 24 -22 15 -9 19 -13 8 -9 -11 3 -26 7
-32 7 -7 0 -11 3 -8 5 3 3 -1 12 -8 20 -9 13 -9 14 1 8 19 -11 14 9 -7 28 -11
10 -24 15 -30 12 -5 -4 -12 -2 -16 4 -4 6 -12 7 -18 4 -7 -4 -9 -4 -5 1 4 4 3
17 -3 29 -9 17 -7 17 11 -4 l21 -25 -16 33 c-8 17 -20 32 -25 32 -6 0 -9 6 -8
13 2 6 -3 11 -11 9 -8 -2 -11 3 -8 12 4 9 -1 19 -9 24 -9 5 -15 12 -14 16 1 4
-9 24 -21 44 -23 38 -25 43 -28 65 -1 9 -4 8 -10 -2 -6 -10 -11 -5 -17 20 -4
19 -9 37 -10 42 -1 4 -2 14 -3 23 0 9 -6 12 -13 8 -8 -5 -9 -2 -5 9 5 12 1 17
-13 17 -13 0 -20 7 -20 20 0 11 -4 20 -10 20 -5 0 -10 5 -10 10 0 18 18 11 25
-10 3 -11 11 -20 16 -20 5 0 3 12 -4 28 -8 15 -20 51 -27 81 -7 29 -16 48 -20
42 -3 -6 -7 3 -7 21 0 30 -10 85 -29 148 -3 14 -7 37 -8 53 -1 16 -6 25 -12
23 -9 -3 -9 3 0 25 10 27 8 32 -13 48 -20 15 -22 21 -12 37 12 18 12 18 8 -3
-3 -13 -1 -23 5 -23 9 0 7 43 -9 160 -3 25 -7 83 -8 130 -4 104 -6 120 -17
120 -5 0 -7 4 -4 9 3 4 -6 18 -19 31 -25 24 -115 39 -115 20 0 -6 -6 -10 -14
-10 -19 0 -42 -30 -30 -38 15 -11 14 -29 -1 -29 -8 0 -12 4 -9 8 2 4 1 10 -4
13 -11 6 -12 -1 -18 -91 -3 -40 -2 -73 3 -73 5 0 9 -53 10 -117 0 -66 6 -129
12 -143 10 -23 11 -23 7 -3 -2 13 0 25 4 28 5 3 8 -29 8 -72 -1 -87 6 -144 27
-218 l15 -50 -5 45 c-4 39 -4 41 6 20 6 -14 8 -39 6 -57 -7 -41 2 -80 14 -61
7 10 9 9 9 -5 0 -10 4 -15 10 -12 7 4 7 -3 0 -20 -13 -33 -13 -48 -1 -40 5 3
9 -7 9 -22 0 -16 6 -41 13 -58 7 -16 11 -34 10 -38 -1 -5 4 -5 10 -1 9 5 10 2
6 -10 -5 -11 -3 -15 5 -10 8 5 9 2 5 -9 -3 -9 5 -40 18 -69 22 -48 28 -53 56
-53 20 0 34 -6 36 -15 4 -13 3 -13 -7 0 -9 12 -10 9 -5 -13 4 -19 2 -26 -5
-22 -5 3 -10 15 -10 26 0 19 -14 26 -24 11 -8 -13 18 -57 34 -57 10 0 14 -8
12 -24 -3 -18 0 -22 11 -18 17 7 37 -11 37 -33 -1 -12 -2 -12 -11 3 -5 9 -15
17 -21 17 -6 0 -4 -8 5 -18 10 -10 17 -24 17 -30 0 -6 11 -19 25 -30 13 -11
22 -21 20 -24 -3 -3 5 -13 17 -24 14 -11 18 -13 10 -3 -9 12 -9 16 2 16 8 0
13 -11 12 -26 -1 -28 24 -37 32 -11 5 13 3 13 -13 0 -18 -15 -18 -14 -1 13 10
15 19 27 20 27 6 0 -1 -47 -8 -59 -12 -19 62 -87 77 -72 7 7 6 16 -3 26 -9 11
-15 12 -20 5 -5 -8 -10 -7 -18 2 -8 10 -3 13 22 13 31 0 32 -2 32 -39 -1 -34
2 -39 21 -41 13 -1 26 -5 30 -10 5 -4 -1 -5 -12 -2 -14 5 -11 0 10 -18 17 -14
36 -25 43 -25 6 0 12 -4 12 -8 0 -5 12 -14 26 -20 14 -7 23 -8 19 -3 -3 5 -1
12 5 16 9 6 14 -8 11 -28 -1 -4 8 -3 19 3 11 6 25 8 31 4 6 -4 15 0 20 7 6 10
9 11 9 2 0 -7 10 -13 23 -14 21 -1 21 -1 -3 -8 -14 -5 -33 -4 -44 1 -12 7 -22
6 -30 -2 -8 -8 -6 -9 8 -4 15 6 17 4 11 -6 -5 -8 -4 -11 3 -6 6 3 27 -3 47
-14 19 -11 41 -20 48 -19 7 0 3 4 -8 9 -11 5 -15 9 -8 9 6 1 28 -8 48 -20 19
-12 42 -18 50 -15 8 3 15 2 15 -3 0 -5 24 -11 53 -14 38 -3 54 -1 60 9 4 8 18
14 30 13 20 -1 20 -2 -3 -8 -22 -7 -18 -9 25 -16 35 -6 50 -4 53 4 3 9 7 9 18
0 10 -8 25 -9 54 -1 22 5 51 8 63 5 18 -4 19 -3 7 6 -11 8 -7 9 19 4 26 -5 32
-3 26 7 -5 9 -2 10 12 6 21 -7 105 19 171 53 49 25 67 26 106 6 34 -18 33 -18
33 0 0 8 -4 12 -9 9 -4 -3 -15 -1 -25 4 -14 8 -10 13 23 35 21 13 41 22 44 19
3 -2 0 -7 -6 -9 -7 -2 -10 -12 -7 -22 3 -10 0 -22 -6 -25 -16 -10 -2 -36 16
-29 12 5 14 3 8 -7 -6 -10 -4 -12 8 -7 10 3 17 2 17 -3 0 -5 7 -7 15 -4 8 4
15 1 15 -5 0 -6 5 -11 11 -11 6 0 8 9 4 23 -7 22 -7 22 8 2 8 -11 13 -23 11
-27 -13 -20 156 -28 266 -13 25 4 42 4 39 1 -3 -3 -30 -9 -60 -14 -51 -8 -49
-9 36 -9 63 0 81 3 60 8 -22 6 -17 7 19 4 31 -3 55 0 64 7 9 8 13 8 9 2 -6
-11 94 7 133 23 18 8 27 10 41 12 5 0 8 5 5 10 -3 5 1 12 10 15 8 3 12 2 9 -4
-9 -15 1 -12 58 16 58 30 67 39 62 67 -4 15 -2 17 10 7 8 -7 15 -9 15 -6 0 4
8 2 18 -3 12 -6 23 -6 28 -1 6 6 15 5 24 -1 12 -9 11 -10 -4 -5 -16 6 -17 4
-6 -9 16 -19 44 -35 72 -40 12 -3 25 -10 29 -16 4 -6 12 -8 18 -5 6 4 19 9 28
11 10 2 27 7 38 11 14 5 17 4 10 -4 -6 -6 -20 -13 -32 -15 -13 -2 -25 -6 -28
-9 -8 -8 74 -40 85 -33 4 3 10 1 12 -4 1 -5 23 -11 48 -15 25 -3 63 -10 85
-16 49 -12 94 -12 50 1 -28 8 -28 8 5 3 92 -14 125 -16 167 -9 33 5 42 9 32
16 -8 5 -9 9 -4 9 6 0 16 -5 21 -10 7 -7 28 -8 55 -4 35 6 40 9 24 16 -15 6
-13 7 8 3 15 -3 46 0 68 6 40 12 40 13 17 26 l-23 14 25 -7 c14 -4 31 -9 38
-11 6 -3 12 0 12 5 0 6 -10 13 -22 15 l-23 4 23 2 c13 0 20 5 17 11 -3 5 1 10
9 10 9 0 16 -4 16 -10 0 -5 -5 -10 -11 -10 -5 0 -8 -4 -4 -10 3 -5 20 -1 41
10 38 22 70 25 108 10 16 -6 27 -6 31 0 6 10 -7 14 -32 11 -20 -3 -15 7 8 20
12 6 19 7 15 1 -3 -6 8 -15 26 -21 42 -15 48 -13 18 4 -17 10 -20 14 -9 15 9
0 23 -7 30 -16 10 -12 24 -15 53 -11 22 3 34 2 27 -2 -11 -7 -11 -9 0 -13 8
-3 11 -9 7 -13 -4 -4 -14 -2 -22 4 -9 8 -32 11 -63 7 -32 -3 -43 -2 -33 4 9 6
10 10 3 10 -6 0 -15 -5 -18 -10 -6 -10 7 -18 37 -24 7 -2 25 -8 40 -14 73 -30
224 -56 234 -41 3 5 11 6 17 2 20 -13 68 -12 60 1 -4 6 1 5 10 -3 14 -11 23
-12 44 -2 20 9 28 9 33 0 6 -8 13 -8 30 1 12 6 33 9 46 6 14 -4 24 -2 24 5 0
6 10 9 23 8 41 -4 99 12 93 27 -3 7 0 16 6 20 6 4 8 3 5 -3 -4 -6 0 -14 9 -17
10 -4 13 -2 8 6 -5 7 -2 9 9 5 22 -8 140 50 131 65 -5 7 -2 9 8 6 19 -8 45 7
29 16 -6 4 -11 2 -11 -5 0 -18 -23 6 -26 27 -2 14 0 14 21 0 14 -9 36 -16 50
-16 14 0 25 -4 25 -8 0 -7 62 -48 68 -44 8 7 32 0 27 -7 -6 -10 62 -37 84 -32
7 1 10 -2 6 -8 -4 -7 0 -8 11 -4 12 4 14 8 6 11 -10 3 -10 7 0 20 11 14 10 15
-7 8 -11 -5 -29 -10 -40 -12 l-20 -4 20 9 c12 6 15 10 6 10 -25 2 -2 14 27 16
27 1 29 -1 26 -32 -2 -38 16 -51 67 -48 16 1 26 -2 23 -6 -3 -5 10 -6 28 -4
26 4 29 3 13 -4 -18 -9 -17 -10 9 -10 21 -1 27 3 22 14 -7 19 -1 19 18 0 11
-12 42 -16 121 -18 58 -2 108 -1 110 2 3 2 26 5 53 7 26 1 92 18 147 37 55 19
116 41 135 48 19 6 44 16 54 21 16 8 18 7 12 -7 -5 -15 -2 -16 21 -10 22 5 25
4 14 -8 -9 -12 -8 -16 5 -21 9 -4 19 -4 22 -1 3 3 -1 5 -8 5 -7 0 -11 3 -7 6
3 3 19 -4 36 -17 17 -12 38 -23 48 -24 10 -1 25 -5 33 -8 35 -13 46 -14 64 -5
12 7 16 7 12 0 -15 -25 192 -36 329 -19 17 2 38 5 48 5 10 1 15 6 12 12 -3 6
1 7 10 4 24 -9 87 5 79 18 -4 7 -3 8 5 4 6 -4 42 5 79 20 87 34 123 60 82 56
-3 0 -6 8 -6 18 0 11 5 16 15 12 10 -4 12 -2 5 9 -10 17 -15 43 -6 34 4 -4 7
-12 7 -18 0 -5 6 -12 14 -15 8 -3 11 0 7 7 -5 7 -1 9 9 4 13 -5 14 -7 3 -14
-10 -7 -10 -9 2 -10 8 -1 21 -1 28 0 7 1 25 -6 40 -17 45 -31 158 -82 188 -85
16 -2 44 -12 63 -21 18 -10 42 -16 52 -13 11 3 22 1 25 -4 5 -9 102 -5 184 7
19 3 32 3 28 -1 -3 -3 -28 -10 -55 -14 -37 -7 -25 -8 52 -6 55 2 111 4 125 5
23 1 23 2 5 10 -16 7 -17 9 -3 9 9 1 25 4 35 7 15 5 16 4 3 -6 -12 -10 -11
-11 10 -6 14 3 31 6 38 6 7 0 10 4 7 10 -3 6 1 7 9 4 11 -4 16 0 16 10 0 17 1
18 40 21 14 2 34 6 45 10 14 4 13 2 -4 -8 -13 -8 -32 -12 -41 -10 -10 3 -20
-2 -23 -11 -6 -16 4 -22 17 -9 3 4 12 8 19 9 7 1 36 12 66 24 38 17 49 26 39
32 -9 6 -6 7 8 3 25 -7 58 20 47 38 -4 7 2 5 12 -3 11 -9 16 -10 11 -3 -5 9 0
13 16 14 22 1 21 2 -4 12 -16 6 -28 14 -28 19 0 4 11 3 24 -4 35 -15 57 -4 52
27 -6 31 7 40 25 18 12 -14 12 -16 0 -8 -10 6 -12 4 -6 -5 6 -9 4 -11 -5 -5
-9 6 -11 4 -6 -4 9 -14 21 -5 95 73 79 83 80 83 69 94 -5 5 -11 22 -13 38 -2
26 -2 27 11 9 13 -17 19 -13 15 9 -1 5 5 4 13 -3 17 -14 36 -7 36 15 0 8 5 14
11 14 6 0 8 7 5 16 -3 8 -2 13 3 10 14 -9 114 200 115 240 1 18 5 32 11 31 12
-4 37 63 30 81 -3 7 0 10 5 7 11 -7 11 -6 15 42 1 18 12 52 23 76 11 23 23 68
26 99 3 32 11 69 17 84 5 15 7 41 4 58 -4 25 -3 27 5 11 9 -18 10 -18 8 5 0
14 2 37 7 53 5 18 3 33 -6 44 -8 9 -9 14 -3 10 13 -7 25 14 23 41 -1 10 -4 7
-8 -8 -6 -17 -8 -4 -7 40 0 36 2 57 4 48 2 -10 8 -18 13 -18 15 0 10 27 -8 46
-17 17 -17 18 0 11 15 -5 17 0 16 36 -1 40 -2 40 -9 12 l-8 -30 -1 33 c-1 21
4 35 14 38 11 5 15 22 15 63 0 52 -2 58 -30 74 -35 21 -57 54 -35 54 8 0 11
-7 7 -16 -5 -14 -3 -14 11 -2 22 18 22 17 -15 35 -40 20 -76 20 -117 0 -29
-15 -61 -54 -44 -54 4 0 3 -4 -4 -8 -8 -5 -13 -57 -15 -166 -2 -87 -6 -160
-10 -163 -5 -2 -8 -18 -8 -35 0 -37 -17 -146 -32 -208 -6 -25 -12 -54 -13 -65
-1 -11 -5 -28 -8 -37 -16 -41 -17 -49 -4 -42 6 4 4 -2 -6 -13 -13 -16 -15 -26
-8 -45 6 -16 6 -30 -1 -39 -8 -12 -9 -11 -5 2 3 9 2 21 -2 28 -7 11 -54 -123
-56 -159 -1 -23 -16 -62 -22 -57 -2 3 1 15 7 27 7 13 8 20 2 16 -15 -9 -35
-73 -27 -86 4 -6 1 -9 -5 -8 -7 2 -17 -6 -23 -17 -7 -11 -24 -39 -39 -63 -15
-23 -23 -42 -19 -42 5 0 12 -7 15 -16 5 -14 4 -15 -8 -5 -17 14 -36 7 -35 -12
0 -9 2 -8 6 1 2 6 9 10 14 6 14 -8 1 -24 -20 -24 -10 0 -24 -6 -30 -14 -13
-15 -4 -49 10 -40 10 6 0 -25 -14 -43 -5 -7 -7 -19 -4 -27 4 -10 1 -13 -8 -10
-14 6 -11 28 8 52 8 10 7 16 -3 22 -9 6 -27 -1 -52 -22 -22 -17 -37 -33 -34
-36 3 -2 -13 -14 -35 -25 -39 -19 -39 -20 -22 -39 15 -17 15 -21 3 -28 -8 -6
-19 -10 -25 -10 -5 0 -3 5 5 10 13 9 13 10 0 10 -12 0 -12 2 -2 9 11 7 10 9
-3 14 -9 4 -13 3 -10 -3 3 -6 -3 -10 -14 -10 -28 0 -52 -11 -45 -21 3 -5 -5
-9 -17 -9 -36 0 -100 -23 -96 -34 3 -8 -43 -11 -147 -11 -83 0 -164 -4 -181
-8 -28 -8 -29 -8 -10 7 20 15 20 15 -2 16 -13 0 -23 -4 -23 -10 0 -5 -10 -10
-22 -11 -22 -1 -22 -1 2 -9 29 -9 6 -13 -27 -4 -24 7 -32 22 -10 21 30 -1 47
4 47 14 0 6 -9 8 -21 4 -15 -5 -19 -4 -14 5 4 7 2 10 -6 9 -8 -2 -33 7 -57 18
-32 16 -45 19 -55 10 -14 -14 -49 -19 -41 -6 3 5 11 9 19 9 8 0 17 5 21 12 5
7 2 9 -7 6 -11 -4 -14 1 -13 24 1 16 6 32 10 36 4 4 4 -2 0 -13 -4 -12 5 -7
23 15 17 19 30 40 30 45 1 6 -3 4 -8 -3 -4 -8 -7 7 -6 35 3 66 4 70 14 54 8
-12 12 -12 24 -2 11 8 17 9 22 1 4 -6 1 -9 -7 -8 -7 2 -12 -5 -12 -15 2 -17 1
-17 -17 -1 -20 18 -25 9 -10 -15 5 -8 16 -11 26 -8 9 4 14 11 11 16 -3 5 1 11
9 15 8 3 15 17 15 31 0 15 4 23 10 20 6 -4 7 1 3 11 -4 12 -3 15 5 10 8 -5 10
-2 6 8 -3 9 -11 13 -17 9 -6 -3 -7 -1 -3 6 6 8 11 9 21 1 9 -8 11 -4 8 17 -3
22 -2 24 5 9 8 -18 10 -16 20 13 7 18 9 38 5 44 -3 5 -2 7 4 4 5 -3 17 10 27
29 17 36 14 60 -6 48 -7 -5 -8 -2 -4 5 5 7 14 10 21 8 7 -3 16 8 22 28 12 38
7 50 -14 34 -10 -9 -13 -4 -12 27 1 38 2 38 9 9 4 -16 8 -23 9 -15 1 13 2 13
11 0 12 -20 31 29 35 91 1 25 10 57 19 72 14 20 15 30 6 46 -8 16 -8 19 3 15
8 -3 14 1 14 8 0 7 3 24 7 37 6 15 5 21 -2 17 -6 -4 -10 2 -9 14 1 10 7 22 14
24 19 8 16 24 -7 31 -26 8 -26 25 0 20 12 -2 23 1 25 8 3 11 14 101 20 177 2
19 6 58 9 85 3 28 2 64 -3 81 -5 19 -5 36 0 41 6 6 6 35 1 72 -11 80 -33 103
-100 107 -41 3 -53 0 -73 -20 -43 -43 -47 -52 -47 -106 0 -41 3 -49 10 -36 6
10 8 32 5 50 -3 17 0 39 7 48 10 14 15 14 36 3 l25 -14 -29 2 c-28 2 -29 1
-31 -56 -1 -37 -7 -62 -15 -67 -9 -6 -15 -31 -17 -72 -1 -35 -5 -85 -8 -112
-6 -38 -4 -47 6 -41 9 6 11 3 6 -9 -4 -10 -7 -23 -8 -29 0 -7 -4 -3 -8 8 -6
14 -10 -1 -15 -50 -9 -88 -13 -114 -22 -144 -6 -19 -4 -22 6 -16 10 6 12 4 7
-9 -4 -10 -7 -23 -8 -29 0 -7 -4 -3 -8 8 -6 16 -9 12 -15 -20 -4 -22 -20 -84
-37 -138 -16 -54 -27 -103 -23 -109 5 -7 3 -8 -6 -3 -9 6 -10 2 -5 -15 4 -14
3 -20 -3 -16 -5 3 -15 -9 -22 -27 -7 -17 -23 -56 -37 -84 -19 -42 -22 -56 -13
-70 9 -14 10 -14 7 -2 -3 9 -1 22 4 30 6 9 7 1 4 -25 -4 -37 -15 -63 -15 -37
0 7 -6 18 -13 25 -11 11 -17 6 -35 -26 -13 -21 -20 -43 -17 -48 3 -6 1 -10 -5
-10 -15 0 -42 -28 -37 -37 8 -13 -82 -8 -94 4 -7 7 -14 25 -15 40 -2 23 -1 25
7 10 6 -9 8 -21 5 -26 -3 -5 1 -14 9 -21 12 -10 15 -9 15 6 1 18 1 18 11 2 5
-10 15 -18 21 -18 6 0 2 10 -10 23 -12 13 -22 29 -22 37 0 7 -3 10 -6 7 -4 -4
-23 25 -42 63 -19 39 -39 70 -44 70 -13 0 -10 -18 4 -22 9 -3 8 -9 -5 -22 -9
-10 -17 -23 -17 -29 1 -7 9 -2 19 9 17 21 18 21 29 3 17 -27 15 -36 -4 -13
-11 13 -14 14 -11 3 4 -11 -1 -15 -16 -14 -17 1 -22 9 -23 31 -1 16 5 39 13
51 7 13 10 23 5 23 -4 0 -14 21 -21 46 -10 33 -16 42 -23 32 -6 -9 -8 -6 -6
11 5 39 -19 35 -26 -5 -4 -20 -10 -34 -12 -31 -10 10 9 77 22 77 11 0 11 8 -1
46 -7 25 -17 49 -21 52 -4 4 -4 -1 -1 -11 4 -12 3 -16 -4 -11 -6 3 -8 17 -5
29 3 13 2 34 -3 47 -6 13 -10 19 -10 13 -1 -5 -10 4 -21 20 -16 24 -20 26 -20
11 0 -11 -3 -17 -6 -13 -8 7 5 47 16 47 4 0 11 -12 14 -26 10 -38 16 -24 9 19
-4 30 -8 35 -19 26 -8 -6 -14 -8 -14 -3 0 5 -5 2 -10 -6 -9 -13 -10 -13 -10 0
0 8 5 22 10 30 8 12 10 12 11 -5 l0 -20 9 20 c12 27 12 37 1 31 -5 -3 -12 1
-15 10 -4 10 -2 13 6 8 8 -5 9 4 4 32 -10 53 -11 58 -18 69 -3 6 -9 64 -13
130 -4 66 -9 124 -12 128 -3 5 -6 54 -7 110 -1 89 -4 106 -24 134 -49 69 -151
65 -200 -7 -19 -29 -22 -46 -23 -129 0 -175 1 -196 6 -221 5 -23 4 -24 -7 -5
-12 19 -21 -27 -42 -205 -1 -14 -6 -33 -11 -43 -4 -9 -5 -27 -2 -39 4 -13 0
-29 -9 -39 -11 -13 -12 -22 -4 -44 6 -16 8 -42 4 -59 -7 -31 -7 -31 -16 -7 -4
13 -11 22 -13 19 -11 -11 15 -59 27 -52 7 4 9 3 5 -1 -9 -11 -37 -16 -36 -7 4
26 -4 34 -12 14 -6 -17 -5 -27 6 -38 11 -11 15 -12 15 -3 0 7 3 10 6 6 3 -3 1
-14 -5 -24 -6 -10 -11 -13 -11 -7 0 7 -6 14 -14 17 -10 4 -12 0 -9 -14 3 -10
10 -19 16 -19 6 0 7 -3 4 -6 -4 -4 -14 -1 -22 6 -9 7 -15 9 -14 4 1 -5 -5 -26
-15 -47 -9 -21 -14 -43 -10 -49 4 -6 3 -8 -3 -5 -14 9 -24 -18 -16 -40 4 -10
2 -14 -4 -10 -5 3 -16 -6 -24 -21 -7 -15 -27 -50 -45 -77 -24 -40 -28 -53 -19
-62 8 -8 16 -8 22 -2 7 7 12 6 16 -4 4 -10 -1 -13 -18 -11 -13 1 -28 5 -33 8
-10 6 -36 -20 -45 -46 -6 -18 15 -42 28 -30 5 4 5 1 1 -6 -6 -11 -12 -10 -27
4 -15 14 -21 14 -34 4 -8 -7 -15 -18 -15 -25 0 -15 -57 -38 -72 -29 -5 3 -7
12 -4 19 7 18 -39 59 -56 49 -9 -5 -8 -2 2 11 14 17 13 18 -2 12 -12 -4 -15
-2 -11 8 3 8 -2 18 -11 21 -9 3 -13 11 -10 16 4 6 -4 4 -17 -4 -13 -8 -30 -14
-38 -14 -16 1 -24 53 -10 62 5 3 6 10 3 16 -4 7 -2 8 5 4 6 -4 9 -11 6 -16 -3
-5 -1 -11 5 -15 5 -3 10 -12 10 -18 0 -7 -7 -3 -15 7 -8 11 -15 16 -15 10 1
-14 30 -49 30 -35 0 7 4 10 9 6 6 -3 9 4 8 15 -1 11 -5 20 -9 20 -4 0 -7 3 -6
8 1 4 -4 18 -11 31 -11 19 -15 21 -23 10 -8 -11 -9 -10 -4 4 7 22 -11 60 -24
52 -6 -3 -7 1 -4 10 4 8 2 21 -3 28 -5 6 -15 31 -23 55 -7 23 -19 47 -27 53
-7 6 -10 15 -7 20 2 5 -2 22 -11 39 -8 16 -14 30 -11 30 7 0 -15 74 -27 88 -8
11 -12 11 -18 0 -6 -9 -9 -9 -9 -1 0 6 5 15 10 18 6 3 10 17 10 31 0 17 -4 23
-12 18 -8 -5 -9 -2 -5 9 8 20 -22 157 -33 157 -5 0 -11 -12 -13 -27 l-4 -28
-2 28 c-1 28 -21 39 -21 12 0 -8 -4 -15 -10 -15 -5 0 -10 9 -10 21 0 13 4 18
12 13 8 -5 9 -2 4 11 -6 18 -6 18 15 -1 l21 -19 -6 35 c-5 28 -4 30 4 13 14
-33 23 -28 15 7 -4 17 -10 61 -14 98 l-7 67 -12 -45 -11 -45 7 55 c11 90 7
283 -7 318 -35 85 -161 91 -211 10 -19 -29 -20 -46 -18 -150 2 -64 0 -112 -3
-106 -4 6 -10 -34 -14 -88 -11 -142 -11 -140 -35 -244 -12 -52 -24 -106 -25
-120 -2 -14 -4 -27 -5 -30 -1 -3 -2 -9 -1 -14 1 -5 -3 -12 -9 -16 -6 -4 -12
-20 -13 -37 -1 -17 -6 -29 -11 -26 -5 4 -6 -6 -2 -23 4 -16 4 -25 0 -21 -14
14 -42 -76 -31 -98 9 -17 8 -18 -5 -7 -14 11 -18 8 -29 -25 -7 -21 -20 -53
-30 -71 -10 -17 -15 -32 -11 -32 4 0 2 -4 -3 -8 -17 -12 -65 -80 -65 -91 0 -6
-4 -11 -10 -11 -5 0 -10 -4 -10 -8 0 -4 9 -8 20 -8 13 0 18 5 15 16 -2 8 -1
21 4 28 4 8 7 -13 6 -48 -2 -61 12 -89 36 -74 8 4 9 3 5 -5 -8 -13 -51 -7 -72
10 -7 6 -11 15 -8 20 3 5 0 9 -6 9 -7 0 -9 8 -5 20 7 23 -10 27 -19 4 -3 -8
-11 -12 -17 -9 -16 11 -99 128 -99 141 0 6 -8 18 -17 25 -15 12 -16 12 -8 -1
5 -9 4 -12 -1 -7 -4 4 -9 18 -9 30 0 13 -5 21 -14 19 -9 -2 -11 3 -7 13 3 9 1
23 -5 33 -5 9 -25 60 -44 112 -19 52 -34 88 -35 80 -1 -18 -25 24 -34 60 -4
17 -1 14 10 -9 15 -33 33 -38 19 -4 -5 10 -7 21 -7 26 1 4 -2 7 -8 7 -5 0 -9
8 -8 18 1 9 0 28 0 41 -2 24 -3 24 -16 6 -13 -18 -14 -18 -21 4 -4 12 -4 25
-1 28 3 4 6 -2 6 -13 0 -16 2 -17 10 -4 13 20 13 43 0 35 -6 -4 -7 5 -4 23 4
21 2 31 -10 35 -9 4 -16 11 -16 17 0 6 5 8 10 5 7 -4 9 7 5 32 -33 244 -39
317 -37 392 3 87 -23 146 -74 167 -67 28 -142 -4 -163 -69 -6 -17 -12 -98 -13
-178 -2 -81 -5 -145 -9 -144 -6 4 -32 -175 -31 -215 0 -14 -3 -27 -7 -30 -14
-11 -31 -122 -20 -139 8 -12 9 -10 4 12 -7 36 0 35 14 -3 6 -18 6 -28 1 -25
-6 4 -15 -6 -20 -20 -5 -14 -14 -24 -19 -21 -5 4 -22 -31 -37 -76 -28 -82 -35
-154 -19 -193 7 -17 6 -18 -6 -7 -8 7 -13 30 -13 52 l1 40 -25 -47 c-14 -27
-25 -59 -24 -73 1 -18 -1 -21 -7 -11 -7 11 -10 9 -16 -9 -9 -27 -65 -109 -112
-163 -18 -20 -33 -40 -33 -45 1 -4 9 3 19 15 14 17 21 19 31 10 10 -10 11 -7
5 13 -4 16 -3 20 3 12 5 -7 15 -12 23 -10 8 2 14 -6 15 -19 1 -12 -2 -20 -7
-17 -4 2 -5 12 -2 22 6 15 5 16 -11 2 -11 -8 -26 -15 -35 -15 -10 0 -15 -7
-13 -20 2 -11 -1 -16 -5 -10 -12 15 -33 17 -49 5 -9 -8 -18 -9 -31 -1 -10 6
-15 11 -10 11 4 0 -6 15 -22 33 -16 17 -38 43 -50 57 -17 21 -22 23 -31 10 -8
-12 -10 -12 -10 -1 0 10 -3 11 -14 2 -10 -9 -16 -9 -21 -1 -4 6 -4 14 -1 17 3
4 6 1 6 -6 0 -7 5 -9 10 -6 8 5 7 11 -1 21 -8 9 -8 18 -1 27 7 8 -1 33 -28 84
-21 39 -41 69 -45 65 -4 -4 -6 0 -5 8 5 32 -1 46 -11 25 -8 -18 -9 -18 -8 5 2
42 0 50 -15 50 -8 0 -18 9 -21 20 -4 11 -11 17 -17 14 -6 -4 -8 1 -4 14 4 11
2 23 -4 27 -5 3 -10 11 -10 17 0 22 28 -13 34 -42 3 -17 9 -30 14 -30 5 0 1
22 -7 49 -9 27 -20 46 -25 43 -5 -3 -6 2 -3 12 4 9 -4 60 -18 113 -14 52 -25
107 -25 122 0 21 -2 23 -10 11 -8 -11 -10 -5 -10 25 1 67 -12 195 -20 195 -6
0 -8 27 -9 215 -1 72 -5 97 -21 123 -41 67 -133 77 -190 21 -31 -32 -42 -78
-40 -164 3 -72 -7 -201 -15 -214 -3 -7 -7 -43 -8 -81 -1 -39 -5 -70 -8 -70 -4
0 -10 -25 -14 -56 -4 -31 -13 -77 -21 -103 -7 -25 -11 -54 -8 -65 4 -12 2 -16
-5 -12 -6 4 -11 1 -11 -8 0 -8 -3 -22 -7 -32 -4 -11 -2 -15 4 -11 11 7 7 -53
-7 -113 -11 -46 -12 -7 -1 48 5 23 5 45 0 48 -5 3 -9 -4 -9 -14 0 -11 -7 -33
-15 -48 -8 -16 -15 -37 -15 -46 0 -9 -5 -20 -11 -24 -6 -3 -9 -15 -6 -25 3
-10 0 -22 -5 -26 -7 -4 -8 -1 -3 8 5 8 5 11 0 7 -4 -4 -16 -26 -26 -47 -13
-29 -14 -41 -6 -45 7 -3 6 -5 -3 -5 -8 -1 -33 -31 -55 -68 -21 -36 -51 -80
-66 -96 l-28 -30 -27 29 c-14 16 -20 20 -13 9 13 -18 13 -19 -3 -6 -10 7 -15
17 -12 22 3 5 -3 21 -14 37 -11 15 -36 58 -56 97 -20 38 -36 62 -36 53 0 -8
-7 -21 -15 -28 -14 -11 -14 -10 -5 16 11 29 9 52 -12 101 -6 15 -12 30 -12 33
-1 3 -6 19 -13 35 -11 29 -52 175 -58 205 -2 8 -11 56 -20 105 -9 50 -19 97
-22 105 -7 18 -9 48 -18 260 -5 109 -12 174 -21 192 -28 55 -95 78 -155 53z
m5049 -18 c5 8 14 6 32 -8 l25 -19 -27 10 c-20 7 -28 6 -28 -1 0 -8 -4 -8 -13
0 -8 6 -17 8 -21 4 -4 -4 -4 1 0 11 5 14 9 15 15 4 7 -10 11 -10 17 -1z
m-7064 -23 c3 -8 2 -12 -4 -9 -6 3 -10 10 -10 16 0 14 7 11 14 -7z m136 -6 c0
-6 -6 -5 -15 2 -8 7 -15 14 -15 16 0 2 7 1 15 -2 8 -4 15 -11 15 -16z m7935 3
c0 -9 -5 -16 -10 -16 -6 0 -9 6 -7 15 1 8 -4 5 -11 -8 -7 -12 -16 -19 -20 -16
-9 9 19 41 36 41 7 0 13 -7 12 -16z m-1060 -1 c3 -5 2 -10 -4 -10 -5 0 -13 5
-16 10 -3 6 -2 10 4 10 5 0 13 -4 16 -10z m75 -15 c-5 -6 -20 -11 -32 -9 -30
3 -30 3 -25 12 3 4 19 7 36 8 23 1 28 -2 21 -11z m-6950 -11 c0 -2 -7 -4 -15
-4 -8 0 -15 4 -15 10 0 5 7 7 15 4 8 -4 15 -8 15 -10z m6990 6 c0 -5 -5 -10
-11 -10 -5 0 -7 5 -4 10 3 6 8 10 11 10 2 0 4 -4 4 -10z m-7173 -62 c-3 -7 -5
-2 -5 12 0 14 2 19 5 13 2 -7 2 -19 0 -25z m7170 10 c-3 -8 -6 -5 -6 6 -1 11
2 17 5 13 3 -3 4 -12 1 -19z m-7150 -25 c-3 -10 -5 -4 -5 12 0 17 2 24 5 18 2
-7 2 -21 0 -30z m1088 -66 c-8 -20 -17 -37 -18 -37 -2 0 -1 16 1 35 2 19 8 32
13 29 5 -3 10 10 10 28 2 27 3 28 6 8 2 -14 -3 -42 -12 -63z m32 -9 c-2 -13
-4 -3 -4 22 0 25 2 35 4 23 2 -13 2 -33 0 -45z m-1127 48 c0 -3 -4 -8 -10 -11
-5 -3 -10 -1 -10 4 0 6 5 11 10 11 6 0 10 -2 10 -4z m6964 -62 c3 -8 2 -12 -4
-9 -6 3 -10 10 -10 16 0 14 7 11 14 -7z m-6947 -31 c-3 -10 -5 -4 -5 12 0 17
2 24 5 18 2 -7 2 -21 0 -30z m7151 6 c-3 -8 -7 -3 -11 10 -4 17 -3 21 5 13 5
-5 8 -16 6 -23z m-6061 -1 c-3 -8 -6 -5 -6 6 -1 11 2 17 5 13 3 -3 4 -12 1
-19z m7103 2 c0 -5 -2 -10 -4 -10 -3 0 -8 5 -11 10 -3 6 -1 10 4 10 6 0 11 -4
11 -10z m8 -80 c0 -9 -3 -7 -8 5 -5 11 -8 29 -8 40 0 16 2 15 8 -5 4 -14 8
-32 8 -40z m-7141 28 c-3 -8 -6 -5 -6 6 -1 11 2 17 5 13 3 -3 4 -12 1 -19z
m5180 -35 c-3 -10 -5 -2 -5 17 0 19 2 27 5 18 2 -10 2 -26 0 -35z m900 15 c-3
-8 -6 -5 -6 6 -1 11 2 17 5 13 3 -3 4 -12 1 -19z m-7140 -25 c-3 -10 -5 -4 -5
12 0 17 2 24 5 18 2 -7 2 -21 0 -30z m180 15 c-3 -8 -6 -5 -6 6 -1 11 2 17 5
13 3 -3 4 -12 1 -19z m780 0 c-3 -8 -6 -5 -6 6 -1 11 2 17 5 13 3 -3 4 -12 1
-19z m-30 -25 c-3 -10 -5 -4 -5 12 0 17 2 24 5 18 2 -7 2 -21 0 -30z m6019
-10 c-11 -11 -17 4 -9 23 7 18 8 18 11 1 2 -10 1 -21 -2 -24z m-5976 13 c0 -3
-4 -8 -10 -11 -5 -3 -10 -1 -10 4 0 6 5 11 10 11 6 0 10 -2 10 -4z m1934 -40
c-3 -15 -8 -25 -11 -23 -2 3 -1 17 3 31 3 15 8 25 11 23 2 -3 1 -17 -3 -31z
m1313 -3 c-3 -10 -5 -4 -5 12 0 17 2 24 5 18 2 -7 2 -21 0 -30z m2022 -22 c1
-35 -5 -22 -12 24 -5 28 -4 34 3 20 5 -11 9 -31 9 -44z m1957 7 c-4 -29 -12
-59 -17 -67 -8 -12 -9 -10 -5 9 3 14 8 44 12 68 9 60 18 52 10 -10z m-7236 13
c0 -11 -4 -22 -9 -25 -5 -4 -7 4 -5 16 3 18 1 16 -9 -6 -8 -16 -17 -24 -20
-19 -7 11 19 53 34 53 5 0 9 -9 9 -19z m-973 -28 c-3 -10 -5 -4 -5 12 0 17 2
24 5 18 2 -7 2 -21 0 -30z m20 15 c-3 -8 -6 -5 -6 6 -1 11 2 17 5 13 3 -3 4
-12 1 -19z m3980 0 c-3 -8 -6 -5 -6 6 -1 11 2 17 5 13 3 -3 4 -12 1 -19z m920
-15 c-3 -10 -5 -4 -5 12 0 17 2 24 5 18 2 -7 2 -21 0 -30z m-1764 -44 c-5 -5
-7 7 -4 29 5 34 6 35 9 8 2 -16 0 -32 -5 -37z m3804 39 c-3 -8 -6 -5 -6 6 -1
11 2 17 5 13 3 -3 4 -12 1 -19z m-4740 -20 c-3 -7 -5 -2 -5 12 0 14 2 19 5 13
2 -7 2 -19 0 -25z m-250 -45 c-2 -16 -4 -5 -4 22 0 28 2 40 4 28 2 -13 2 -35
0 -50z m6050 30 c-3 -10 -5 -4 -5 12 0 17 2 24 5 18 2 -7 2 -21 0 -30z m-4029
-28 c0 -16 -2 -15 -8 5 -8 25 -8 25 -9 -4 -1 -16 -4 -27 -7 -23 -4 3 -3 23 1
44 6 32 9 35 15 18 5 -11 8 -29 8 -40z m261 10 c0 -5 -4 -3 -9 5 -5 8 -9 22
-9 30 0 16 17 -16 18 -35z m1741 8 c-11 -17 -11 -17 -6 0 3 10 6 24 7 30 0 9
2 9 5 0 3 -7 0 -20 -6 -30z m34 22 c3 -8 1 -15 -4 -15 -6 0 -10 7 -10 15 0 8
2 15 4 15 2 0 6 -7 10 -15z m-5077 -37 c1 -37 0 -39 -8 -19 -8 19 -5 61 5 61
1 0 2 -19 3 -42z m20 10 c-3 -7 -5 -2 -5 12 0 14 2 19 5 13 2 -7 2 -19 0 -25z
m3040 -20 c-2 -13 -4 -5 -4 17 -1 22 1 32 4 23 2 -10 2 -28 0 -40z m922 45 c0
-5 -4 -17 -9 -28 -8 -18 -9 -17 -9 8 -1 15 4 27 9 27 6 0 10 -3 9 -7z m2031
-50 c0 -17 -4 -34 -9 -37 -5 -4 -7 12 -4 36 3 32 2 39 -6 28 -6 -8 -11 -24
-12 -35 0 -12 -3 -15 -6 -7 -3 7 1 27 7 43 15 36 30 22 30 -28z m-2742 22 c-3
-3 -9 2 -12 12 -6 14 -5 15 5 6 7 -7 10 -15 7 -18z m-3071 -17 c-3 -7 -5 -2
-5 12 0 14 2 19 5 13 2 -7 2 -19 0 -25z m1740 0 c-3 -7 -5 -2 -5 12 0 14 2 19
5 13 2 -7 2 -19 0 -25z m3350 10 c-3 -8 -6 -5 -6 6 -1 11 2 17 5 13 3 -3 4
-12 1 -19z m-6040 -30 c-3 -7 -5 -2 -5 12 0 14 2 19 5 13 2 -7 2 -19 0 -25z
m2960 10 c-3 -8 -6 -5 -6 6 -1 11 2 17 5 13 3 -3 4 -12 1 -19z m3092 -42 c-7
-31 -14 -54 -16 -52 -3 2 1 30 7 61 6 31 14 55 16 52 2 -2 -1 -29 -7 -61z
m-4029 45 c0 -5 3 -18 6 -28 6 -16 5 -16 -9 2 -19 23 -21 35 -7 35 6 0 10 -4
10 -9z m1990 -6 c0 -8 -4 -15 -10 -15 -5 0 -10 7 -10 15 0 8 5 15 10 15 6 0
10 -7 10 -15z m727 -47 c-2 -13 -4 -3 -4 22 0 25 2 35 4 23 2 -13 2 -33 0 -45z
m3265 37 c-2 -14 -6 -25 -8 -25 -2 0 -4 11 -4 25 0 14 4 25 9 25 4 0 6 -11 3
-25z m-5996 -48 c-2 -7 -5 -3 -5 8 -1 14 -4 16 -9 7 -6 -8 -9 -1 -9 19 l0 31
14 -27 c8 -14 12 -32 9 -38z m4011 11 c-2 -13 -4 -5 -4 17 -1 22 1 32 4 23 2
-10 2 -28 0 -40z m-180 20 c-3 -8 -6 -5 -6 6 -1 11 2 17 5 13 3 -3 4 -12 1
-19z m-2907 -23 c0 -5 -5 -3 -10 5 -5 8 -10 20 -10 25 0 6 5 3 10 -5 5 -8 10
-19 10 -25z m38 5 c1 -33 -12 -33 -21 0 -3 11 -1 18 4 14 5 -3 9 0 9 5 0 26 7
8 8 -19z m4846 14 c3 -8 2 -12 -4 -9 -6 3 -10 10 -10 16 0 14 7 11 14 -7z
m-6015 -33 c-1 -34 -1 -35 -9 -9 -4 14 -10 31 -13 36 -4 5 0 9 8 9 11 0 15
-11 14 -36z m4014 19 c-3 -12 -8 -19 -11 -16 -5 6 5 36 12 36 2 0 2 -9 -1 -20z
m-5793 -55 c12 -33 24 -69 27 -80 4 -18 3 -18 -7 -3 -10 16 -50 133 -50 146 0
13 10 -7 30 -63z m2687 23 c-3 -7 -5 -2 -5 12 0 14 2 19 5 13 2 -7 2 -19 0
-25z m13 -45 c-10 -16 -11 -15 -6 7 3 14 7 36 7 50 2 19 3 18 6 -7 2 -18 -1
-41 -7 -50z m3070 68 c0 -6 -4 -13 -10 -16 -5 -3 -10 1 -10 9 0 9 5 16 10 16
6 0 10 -4 10 -9z m59 -41 c0 -9 -4 -8 -9 5 -5 11 -9 27 -9 35 0 9 4 8 9 -5 5
-11 9 -27 9 -35z m216 20 c-4 -12 -9 -19 -12 -17 -3 3 -2 15 2 27 4 12 9 19
12 17 3 -3 2 -15 -2 -27z m-4028 -2 c-3 -8 -6 -5 -6 6 -1 11 2 17 5 13 3 -3 4
-12 1 -19z m647 7 c-4 -8 -8 -15 -10 -15 -2 0 -4 7 -4 15 0 8 4 15 10 15 5 0
7 -7 4 -15z m5135 -44 c1 -35 -5 -22 -12 24 -5 28 -4 34 3 20 5 -11 9 -31 9
-44z m-5073 9 c-4 -26 -2 -40 4 -40 6 0 8 -5 4 -11 -13 -22 -25 9 -18 49 4 23
9 42 12 42 2 0 2 -18 -2 -40z m1264 24 c0 -8 -5 -12 -10 -9 -6 4 -8 11 -5 16
9 14 15 11 15 -7z m987 -21 c-3 -10 -5 -4 -5 12 0 17 2 24 5 18 2 -7 2 -21 0
-30z m-4227 18 c0 -6 -4 -13 -10 -16 -5 -3 -10 1 -10 9 0 9 5 16 10 16 6 0 10
-4 10 -9z m985 -12 c4 -12 2 -26 -5 -33 -10 -8 -11 -6 -5 12 4 13 2 22 -4 22
-6 0 -11 5 -11 10 0 18 19 10 25 -11z m1165 11 c0 -5 -4 -10 -10 -10 -5 0 -10
5 -10 10 0 6 5 10 10 10 6 0 10 -4 10 -10z m30 0 c0 -5 -2 -10 -4 -10 -3 0 -8
5 -11 10 -3 6 -1 10 4 10 6 0 11 -4 11 -10z m877 -12 c-3 -8 -6 -5 -6 6 -1 11
2 17 5 13 3 -3 4 -12 1 -19z m1100 0 c-3 -8 -6 -5 -6 6 -1 11 2 17 5 13 3 -3
4 -12 1 -19z m1080 0 c-3 -8 -6 -5 -6 6 -1 11 2 17 5 13 3 -3 4 -12 1 -19z
m878 -18 c-9 -41 -17 -33 -9 9 4 17 9 30 11 27 3 -2 2 -19 -2 -36z m-2158 8
c-3 -8 -6 -5 -6 6 -1 11 2 17 5 13 3 -3 4 -12 1 -19z m230 0 c-3 -8 -6 -5 -6
6 -1 11 2 17 5 13 3 -3 4 -12 1 -19z m-2281 -30 c1 -40 0 -41 -8 -15 -8 23 -6
57 4 57 2 0 4 -19 4 -42z m2090 -11 c1 -28 -1 -43 -3 -32 -2 11 -8 33 -13 48
-6 17 -6 26 0 22 6 -4 10 -1 10 4 0 6 1 11 3 11 1 0 3 -24 3 -53z m-4764 13
c3 -16 1 -30 -4 -30 -4 0 -8 14 -8 30 0 17 2 30 4 30 2 0 6 -13 8 -30z m1969
-2 c-3 -21 -6 -26 -9 -15 -3 17 3 47 11 47 2 0 1 -15 -2 -32z m1017 -4 c-3
-14 -5 -12 -10 9 -3 19 -2 25 4 19 6 -6 8 -18 6 -28z m-31 -11 c-3 -10 -5 -4
-5 12 0 17 2 24 5 18 2 -7 2 -21 0 -30z m3070 15 c-3 -8 -6 -5 -6 6 -1 11 2
17 5 13 3 -3 4 -12 1 -19z m47 6 c3 -8 2 -12 -4 -9 -6 3 -10 10 -10 16 0 14 7
11 14 -7z m1713 -16 c-3 -8 -6 -5 -6 6 -1 11 2 17 5 13 3 -3 4 -12 1 -19z
m-7008 -38 c0 -9 -4 -8 -9 5 -5 11 -9 27 -9 35 0 9 4 8 9 -5 5 -11 9 -27 9
-35z m3923 9 c5 -3 1 -19 -7 -35 l-16 -29 5 35 6 35 -17 -33 c-15 -29 -15 -35
-3 -43 11 -8 12 -12 3 -15 -7 -3 -9 -13 -6 -22 3 -9 3 -14 -1 -10 -15 13 -14
64 2 105 9 24 19 37 21 30 2 -6 8 -15 13 -18z m37 -14 c0 -5 -4 -3 -9 5 -5 8
-9 22 -9 30 0 16 17 -16 18 -35z m-2038 -5 c-7 -4 -9 -15 -5 -26 6 -15 4 -17
-6 -7 -10 9 -10 17 1 43 10 22 15 26 17 14 2 -9 -1 -20 -7 -24z m212 15 c2
-14 2 -23 -1 -20 -3 2 -11 0 -19 -6 -10 -9 -13 -8 -13 5 0 10 5 14 10 11 6 -3
10 3 10 14 0 29 7 26 13 -4z m3134 -7 c-3 -7 -5 -2 -5 12 0 14 2 19 5 13 2 -7
2 -19 0 -25z m848 23 c3 -5 1 -12 -5 -16 -5 -3 -10 1 -10 9 0 18 6 21 15 7z
m-4226 -66 c4 -5 11 -19 14 -30 7 -19 6 -18 -12 2 -14 16 -21 19 -30 10 -8 -8
-11 -7 -11 6 0 9 5 17 10 17 6 0 11 15 11 33 l2 32 4 -30 c3 -16 8 -34 12 -40z
m58 43 c-3 -8 -6 -5 -6 6 -1 11 2 17 5 13 3 -3 4 -12 1 -19z m270 0 c-3 -8 -6
-5 -6 6 -1 11 2 17 5 13 3 -3 4 -12 1 -19z m1929 -62 c-2 -6 -5 0 -6 14 -1 25
-1 24 -14 -5 -7 -16 -11 -34 -8 -39 3 -5 0 -6 -6 -2 -9 5 -8 17 3 43 8 19 15
45 16 57 1 11 5 3 10 -18 5 -22 7 -44 5 -50z m11 62 c-3 -8 -6 -5 -6 6 -1 11
2 17 5 13 3 -3 4 -12 1 -19z m1080 0 c-3 -8 -6 -5 -6 6 -1 11 2 17 5 13 3 -3
4 -12 1 -19z m1790 0 c-3 -8 -6 -5 -6 6 -1 11 2 17 5 13 3 -3 4 -12 1 -19z
m-5041 -18 c-1 -16 -4 -30 -8 -30 -10 0 -10 22 -2 44 9 23 11 20 10 -14z m968
15 c3 -8 1 -15 -4 -15 -6 0 -10 7 -10 15 0 8 2 15 4 15 2 0 6 -7 10 -15z
m4049 1 c4 -10 1 -13 -9 -9 -7 3 -14 9 -14 14 0 14 17 10 23 -5z m-1929 -23
c-7 -16 -14 -35 -15 -43 0 -10 -3 -8 -9 5 -12 27 -12 43 0 25 8 -12 10 -11 10
7 0 12 6 24 13 26 6 3 13 6 14 6 1 1 -5 -11 -13 -26z m-5972 -25 c-10 -22 -10
-21 -9 9 1 19 6 28 11 23 6 -6 5 -18 -2 -32z m1065 20 c-3 -8 -6 -5 -6 6 -1
11 2 17 5 13 3 -3 4 -12 1 -19z m51 -30 c6 -16 10 -28 8 -28 -5 0 -46 69 -46
78 0 12 26 -23 38 -50z m829 30 c-3 -8 -6 -5 -6 6 -1 11 2 17 5 13 3 -3 4 -12
1 -19z m143 -8 c0 -5 -5 -10 -11 -10 -5 0 -7 5 -4 10 3 6 8 10 11 10 2 0 4 -4
4 -10z m760 -5 c0 -8 -4 -15 -10 -15 -5 0 -10 7 -10 15 0 8 5 15 10 15 6 0 10
-7 10 -15z m1130 -20 c0 -5 -5 -3 -10 5 -5 8 -10 20 -10 25 0 6 5 3 10 -5 5
-8 10 -19 10 -25z m2020 14 c0 -5 -4 -9 -10 -9 -5 0 -10 7 -10 16 0 8 5 12 10
9 6 -3 10 -10 10 -16z m187 -1 c-3 -8 -6 -5 -6 6 -1 11 2 17 5 13 3 -3 4 -12
1 -19z m809 -4 c-4 -9 -9 -15 -11 -12 -3 3 -3 13 1 22 4 9 9 15 11 12 3 -3 3
-13 -1 -22z m896 4 c-7 -7 -12 -8 -12 -2 0 14 12 26 19 19 2 -3 -1 -11 -7 -17z
m35 -15 c-3 -10 -5 -4 -5 12 0 17 2 24 5 18 2 -7 2 -21 0 -30z m-4888 12 c1
14 4 16 12 8 9 -9 8 -16 -4 -27 -14 -14 -16 -14 -21 0 -9 24 -6 41 4 19 8 -19
9 -19 9 0z m908 -7 c-3 -8 -6 -5 -6 6 -1 11 2 17 5 13 3 -3 4 -12 1 -19z m136
0 c-2 -13 0 -42 5 -65 6 -24 6 -40 1 -37 -5 3 -9 15 -9 27 0 12 -4 28 -9 35
-9 15 -3 62 9 62 4 0 5 -10 3 -22z m117 -15 c-11 -17 -11 -17 -6 0 3 10 6 24
7 30 0 9 2 9 5 0 3 -7 0 -20 -6 -30z m1897 15 c-3 -8 -6 -5 -6 6 -1 11 2 17 5
13 3 -3 4 -12 1 -19z m-5003 -28 c-6 -5 -24 21 -24 34 0 6 6 1 14 -10 8 -10
12 -21 10 -24z m4886 -17 c-1 -31 -3 -35 -11 -20 -6 9 -7 26 -4 37 10 30 15
24 15 -17z m1925 27 c3 -5 1 -10 -4 -10 -6 0 -11 5 -11 10 0 6 2 10 4 10 3 0
8 -4 11 -10z m-7892 -20 c-3 -12 -8 -19 -11 -16 -5 6 5 36 12 36 2 0 2 -9 -1
-20z m2044 -17 c-3 -10 -5 -4 -5 12 0 17 2 24 5 18 2 -7 2 -21 0 -30z m150 15
c-3 -8 -6 -5 -6 6 -1 11 2 17 5 13 3 -3 4 -12 1 -19z m680 16 c-3 -3 -12 -4
-19 -1 -8 3 -5 6 6 6 11 1 17 -2 13 -5z m3119 -11 c1 -10 5 -27 9 -38 6 -17 5
-16 -10 3 -9 13 -14 29 -11 37 7 20 12 19 12 -2z m-5045 -40 c-5 -35 -9 -41
-21 -33 -10 7 -12 12 -4 18 6 4 14 20 18 36 10 41 15 28 7 -21z m3003 15 c4
-17 2 -28 -4 -28 -5 0 -10 14 -10 32 0 36 4 35 14 -4z m31 -7 c4 -15 3 -21 -3
-17 -5 3 -12 17 -15 32 -5 30 8 20 18 -15z m822 17 c-3 -8 -6 -5 -6 6 -1 11 2
17 5 13 3 -3 4 -12 1 -19z m1130 -15 c-3 -10 -5 -4 -5 12 0 17 2 24 5 18 2 -7
2 -21 0 -30z m-4107 0 c0 -19 -3 -24 -10 -17 -6 6 -8 18 -4 27 9 24 14 21 14
-10z m127 5 c-3 -8 -6 -5 -6 6 -1 11 2 17 5 13 3 -3 4 -12 1 -19z m2242 -39
c-17 -10 -29 -2 -28 19 0 14 2 14 10 -3 7 -16 8 -12 4 15 l-4 35 15 -29 c13
-23 13 -30 3 -37z m956 32 c8 -17 12 -37 9 -45 -3 -9 -1 -16 5 -16 6 0 11 -5
11 -12 0 -6 -9 -3 -20 7 -20 19 -28 41 -10 30 15 -9 12 8 -5 31 -14 19 -19 34
-10 34 2 0 11 -13 20 -29z m914 -15 c-9 -8 -10 -7 -5 7 3 10 7 24 7 30 1 7 3
4 6 -7 3 -10 -1 -23 -8 -30z m-4222 12 c-3 -8 -6 -5 -6 6 -1 11 2 17 5 13 3
-3 4 -12 1 -19z m90 0 c-3 -8 -6 -5 -6 6 -1 11 2 17 5 13 3 -3 4 -12 1 -19z
m966 7 c4 -8 2 -17 -3 -20 -6 -4 -10 3 -10 14 0 25 6 27 13 6z m247 5 c0 -5
-2 -10 -4 -10 -3 0 -8 5 -11 10 -3 6 -1 10 4 10 6 0 11 -4 11 -10z m1874 -25
c5 -22 4 -26 -4 -15 -5 8 -10 24 -10 34 0 26 6 18 14 -19z m-4831 10 c-3 -9
-8 -14 -10 -11 -3 3 -2 9 2 15 9 16 15 13 8 -4z m1887 0 c0 -8 -2 -15 -4 -15
-2 0 -6 7 -10 15 -3 8 -1 15 4 15 6 0 10 -7 10 -15z m1755 -15 c-4 -12 -9 -19
-12 -17 -3 3 -2 15 2 27 4 12 9 19 12 17 3 -3 2 -15 -2 -27z m2965 2 c0 -15
-2 -15 -10 -2 -13 20 -13 33 0 25 6 -3 10 -14 10 -23z m1240 -2 c-7 -4 -9 -14
-5 -21 6 -11 5 -11 -4 -3 -10 9 -10 16 1 33 7 12 15 16 17 10 2 -6 -2 -15 -9
-19z m-3245 10 c3 -5 1 -10 -4 -10 -6 0 -11 5 -11 10 0 6 2 10 4 10 3 0 8 -4
11 -10z m1962 -22 c-3 -7 -5 -2 -5 12 0 14 2 19 5 13 2 -7 2 -19 0 -25z
m-4947 1 c0 -6 -4 -7 -10 -4 -5 3 -10 11 -10 16 0 6 5 7 10 4 6 -3 10 -11 10
-16z m3119 4 c-3 -23 10 -52 33 -75 10 -10 16 -24 11 -31 -4 -7 0 -7 10 2 10
8 20 11 24 7 3 -3 1 -6 -5 -6 -15 0 -20 -30 -9 -62 6 -19 13 -25 25 -21 14 6
15 4 5 -8 -10 -13 -10 -21 0 -42 6 -15 16 -27 20 -27 5 0 6 -4 2 -9 -6 -11 15
-61 27 -61 4 0 8 7 8 15 0 8 -4 15 -10 15 -5 0 -10 5 -10 11 0 8 5 8 15 -1 8
-7 15 -19 15 -26 0 -8 5 -14 11 -14 6 0 8 9 4 20 -4 11 -2 20 4 20 6 0 11 5
11 10 0 6 -6 10 -12 9 -23 -3 -38 1 -38 9 0 4 12 7 28 6 25 -1 27 -4 27 -42 0
-22 -4 -40 -9 -39 -5 1 -10 -13 -12 -31 -1 -29 42 -114 69 -133 5 -3 9 -10 10
-15 1 -5 7 -8 14 -8 6 1 9 -4 7 -11 -8 -19 22 -43 50 -40 14 2 31 -4 38 -13
11 -13 11 -14 -2 -7 -22 13 -50 13 -50 0 0 -7 9 -20 21 -31 19 -17 19 -19 3
-31 -15 -11 -14 -13 9 -18 14 -4 36 -19 49 -33 21 -24 21 -25 1 -8 -12 10 -27
15 -34 10 -8 -4 -10 -3 -5 5 6 8 1 10 -17 5 -14 -3 -34 -1 -44 5 -14 9 -11 10
17 6 31 -5 32 -4 11 5 -25 11 -87 4 -97 -12 -3 -5 -14 -6 -25 -3 -11 4 -19 2
-19 -4 0 -6 16 -11 36 -11 21 0 33 4 29 10 -3 6 1 10 9 10 10 0 13 -6 10 -15
-7 -16 -44 -19 -109 -8 l-40 7 30 7 c29 6 -153 15 -219 11 -16 -2 -36 4 -45
11 -9 8 -29 19 -46 25 -16 5 -39 13 -49 18 -11 4 -17 4 -14 -2 4 -5 -6 -9 -22
-9 -25 0 -27 2 -17 25 6 14 16 32 23 40 10 12 9 18 -4 30 -20 18 -44 22 -39 7
2 -7 9 -12 14 -12 19 0 24 -12 10 -24 -11 -9 -17 -8 -27 4 -7 8 -9 15 -6 15 4
0 0 7 -8 16 -9 8 -22 12 -28 8 -7 -4 -4 3 7 15 23 23 61 35 70 21 3 -5 -3 -7
-14 -5 -11 2 -25 -3 -31 -10 -10 -12 -6 -14 24 -11 20 2 34 0 31 -4 -3 -4 2
-11 10 -14 10 -4 22 5 35 27 19 30 29 67 12 39 -5 -7 -8 3 -7 25 2 67 30 102
30 39 0 -19 -3 -32 -7 -29 -5 2 -8 0 -8 -6 0 -21 17 -20 27 2 6 12 10 25 9 28
0 4 6 15 15 25 20 23 61 106 48 99 -5 -4 -6 1 -3 9 3 9 10 14 14 11 4 -3 11 2
14 11 4 9 2 13 -5 8 -7 -4 -1 7 11 24 19 25 21 34 11 46 -7 9 -8 17 -2 20 5 3
11 1 13 -5 2 -6 12 13 22 42 18 50 18 53 1 86 -14 25 -21 30 -27 21 -7 -10 -8
-9 -5 2 2 8 10 14 16 13 6 -2 11 4 11 12 0 8 3 15 6 15 3 0 4 -8 3 -17z
m-1124 -3 c3 -5 1 -10 -4 -10 -6 0 -11 5 -11 10 0 6 2 10 4 10 3 0 8 -4 11
-10z m274 -65 c0 -31 -2 -35 -9 -20 -4 11 -6 31 -4 45 l4 25 -10 -24 c-6 -14
-8 -31 -5 -38 3 -8 0 -11 -6 -7 -6 4 -8 17 -3 33 4 14 6 34 6 45 -1 18 -1 18
13 0 8 -11 14 -37 14 -59z m1916 65 c3 -5 1 -10 -4 -10 -6 0 -11 5 -11 10 0 6
2 10 4 10 3 0 8 -4 11 -10z m-5804 -56 c-6 -28 -9 -32 -10 -14 -1 30 11 79 16
64 2 -6 -1 -28 -6 -50z m2029 35 c0 -6 -4 -7 -10 -4 -5 3 -10 11 -10 16 0 6 5
7 10 4 6 -3 10 -11 10 -16z m1739 -47 c1 -7 -3 -10 -9 -7 -5 3 -10 21 -9 38 1
31 1 31 9 7 4 -14 8 -31 9 -38z m22 -11 c-5 -9 -6 -23 -4 -31 4 -13 3 -13 -6
0 -10 13 -11 13 -11 0 0 -8 4 -21 9 -29 7 -11 11 -6 16 21 4 19 15 47 24 62
l18 26 0 -27 c0 -16 10 -49 21 -75 12 -26 22 -55 22 -65 0 -15 2 -16 11 -3 9
13 10 12 5 -2 -7 -24 13 -80 27 -71 6 3 7 1 3 -5 -6 -9 67 -162 93 -194 6 -7
23 -29 39 -48 16 -19 32 -44 36 -55 4 -11 10 -15 14 -10 4 6 14 11 22 13 8 2
2 -8 -14 -23 -25 -22 -27 -29 -5 -27 3 1 6 -4 6 -11 0 -7 -12 -13 -25 -14 -19
-1 -21 1 -11 8 23 16 -35 3 -70 -15 -17 -9 -33 -16 -36 -16 -35 1 -40 0 -25
-10 11 -7 2 -9 -30 -5 -44 5 -44 5 -11 -6 27 -8 31 -13 20 -20 -8 -5 -18 -9
-24 -9 -5 0 -3 5 5 10 11 7 1 10 -35 11 -27 1 -77 3 -110 4 l-60 4 40 -18 40
-18 -33 0 c-21 0 -28 3 -20 9 8 5 9 8 2 8 -6 0 -27 3 -45 6 -26 4 -30 3 -19
-5 17 -12 10 -14 -14 -5 -9 3 -14 10 -11 14 3 4 -24 15 -60 24 -35 9 -81 28
-102 42 -51 35 -53 37 -11 19 l37 -15 36 45 c22 26 34 49 29 56 -4 7 -3 9 3 6
6 -4 16 0 23 8 11 13 10 14 -5 9 -15 -6 -16 -4 -5 17 16 30 25 39 17 17 -13
-36 10 -16 41 36 29 47 31 56 21 80 -9 19 -9 31 -1 48 11 22 11 22 6 -4 -3
-15 -2 -34 4 -43 7 -14 15 -5 39 48 51 109 57 130 45 165 -8 24 -8 35 2 44 19
20 25 45 14 56 -6 6 -7 16 -2 23 11 19 26 -39 15 -60z m2972 35 c-3 -4 -9 -2
-14 5 -13 22 -11 31 5 17 8 -7 12 -17 9 -22z m-4000 -3 c-6 -2 -9 -13 -6 -23
3 -11 8 -18 12 -16 3 2 7 -9 7 -26 1 -17 7 -33 13 -37 7 -5 11 -12 10 -17 -3
-20 2 -34 12 -34 6 0 9 6 6 13 -3 8 -1 20 4 28 7 11 9 8 9 -9 0 -13 7 -37 16
-53 8 -17 13 -33 10 -37 -3 -3 -6 1 -6 9 0 12 -2 11 -11 -1 -8 -12 -9 -10 -4
9 5 16 4 21 -4 17 -7 -5 -9 -1 -4 11 5 14 3 15 -7 6 -10 -9 -6 -26 21 -83 30
-66 34 -70 47 -53 12 16 13 16 7 -9 -8 -31 18 -92 47 -113 11 -7 18 -18 14
-23 -3 -5 10 -25 28 -44 18 -19 36 -44 40 -55 4 -11 16 -29 28 -39 12 -11 19
-14 15 -8 -3 6 1 11 10 11 11 0 6 -9 -16 -28 -22 -18 -28 -28 -19 -32 10 -4 9
-9 -4 -23 -11 -11 -18 -13 -18 -6 0 7 5 12 12 12 7 0 5 7 -6 18 -13 12 -20 13
-23 5 -3 -8 -15 -10 -35 -6 -20 4 -29 3 -25 -4 5 -7 -26 -10 -93 -7 -56 2
-102 -1 -105 -7 -4 -5 4 -9 16 -9 12 0 20 -3 16 -6 -9 -9 -68 7 -61 17 7 13 1
11 -32 -6 -16 -8 -31 -10 -34 -6 -3 5 -14 11 -25 14 -11 3 0 4 25 1 49 -4 40
1 -44 30 -26 9 -52 13 -57 10 -5 -3 -9 -1 -9 3 0 11 -67 36 -78 29 -4 -2 -7 8
-6 22 1 15 6 26 12 25 16 -4 55 54 42 62 -15 9 -12 22 5 22 8 0 11 -5 8 -10
-3 -6 -1 -7 5 -3 7 4 12 16 12 27 0 13 4 18 12 13 8 -5 9 -2 5 10 -4 10 -3 15
3 11 12 -7 30 27 30 58 0 14 9 35 21 48 l21 24 -16 -25 c-9 -13 -16 -29 -16
-35 0 -11 33 40 43 69 5 13 3 17 -7 13 -11 -5 -13 0 -6 22 4 16 3 35 -2 46 -8
13 -7 16 1 11 14 -9 14 -1 1 23 -8 16 -5 18 29 15 34 -2 38 0 49 30 7 18 12
37 12 44 0 21 44 86 48 72 3 -8 0 -16 -5 -17z m-42 -10 c-12 -20 -14 -14 -5
12 4 9 9 14 11 11 3 -2 0 -13 -6 -23z m3133 19 c3 7 3 3 0 -9 -6 -25 5 -30 24
-11 9 9 12 8 12 -6 0 -9 -4 -15 -9 -12 -5 4 -11 0 -14 -6 -5 -16 13 -58 25
-58 5 0 6 -5 2 -11 -3 -6 1 -27 9 -47 8 -21 21 -52 28 -71 7 -19 15 -29 17
-23 2 7 8 12 13 12 6 0 5 -8 -1 -20 -8 -16 -5 -28 15 -60 14 -22 25 -42 25
-44 0 -15 84 -135 91 -130 8 5 13 -9 11 -28 -1 -3 4 -8 11 -11 8 -3 14 3 14
14 1 11 -2 17 -7 14 -6 -3 -7 1 -4 9 4 11 0 14 -16 11 -19 -4 -20 -2 -8 12 11
15 11 16 -4 10 -10 -3 -20 -3 -22 2 -7 11 27 10 42 -2 8 -6 12 -5 12 4 0 11 2
12 9 1 9 -15 7 -94 -3 -111 -4 -6 -14 -11 -22 -11 -17 0 -19 -16 -1 -24 6 -3
2 -3 -11 0 -12 3 -49 -4 -82 -15 -33 -12 -70 -21 -83 -22 -12 0 -31 -5 -42
-10 -16 -8 -14 -8 10 -5 17 3 24 3 16 -1 -11 -5 -11 -7 0 -15 9 -5 3 -6 -16
-2 -16 4 -32 11 -35 15 -3 5 -53 8 -110 7 -130 -1 -221 21 -241 59 -7 14 -27
30 -44 37 l-30 13 36 -1 c20 -1 44 -8 53 -15 15 -13 20 -12 37 6 13 12 21 35
22 57 1 20 4 36 8 36 4 0 5 9 2 20 -3 12 0 20 7 20 7 0 10 -6 7 -14 -3 -7 0
-19 6 -25 9 -10 9 -12 -2 -9 -8 2 -14 -6 -16 -19 -1 -13 -1 -23 0 -23 1 0 21
29 44 65 52 81 68 122 52 138 -9 9 -11 8 -6 -4 3 -9 -1 -22 -10 -29 -13 -11
-15 -10 -10 4 3 9 7 23 10 32 5 15 7 15 25 -1 16 -15 28 -8 18 9 -2 2 5 12 14
23 11 12 15 28 12 43 -4 18 -3 21 4 12 7 -11 10 -11 15 2 3 8 0 22 -8 30 -8 8
-15 21 -15 28 0 7 9 2 20 -12 11 -14 20 -20 20 -14 0 6 -9 23 -20 37 -21 27
-26 42 -11 32 6 -3 14 3 20 12 5 10 13 14 18 9 4 -5 2 -11 -4 -13 -15 -6 -17
-39 -3 -48 9 -5 11 -1 10 20 0 3 7 19 15 35 9 17 13 36 9 42 -4 6 -3 8 3 5 15
-9 23 39 9 55 -9 10 -8 10 6 0 13 -10 17 -10 22 0z m1990 -7 c3 -8 1 -15 -4
-15 -6 0 -10 7 -10 15 0 8 2 15 4 15 2 0 6 -7 10 -15z m-3129 -72 c-9 -15 -13
-19 -9 -8 4 11 7 36 6 55 -1 34 0 34 9 8 8 -20 6 -33 -6 -55z m1371 40 c-11
-11 -17 4 -9 23 7 18 8 18 11 1 2 -10 1 -21 -2 -24z m-4089 -5 c-3 -7 -5 -2
-5 12 0 14 2 19 5 13 2 -7 2 -19 0 -25z m30 0 c-3 -7 -5 -2 -5 12 0 14 2 19 5
13 2 -7 2 -19 0 -25z m2930 10 c-3 -8 -6 -5 -6 6 -1 11 2 17 5 13 3 -3 4 -12
1 -19z m-3184 -8 c-3 -11 -7 -20 -9 -20 -2 0 -4 9 -4 20 0 11 4 20 9 20 5 0 7
-9 4 -20z m3874 -2 c-3 -8 -6 -5 -6 6 -1 11 2 17 5 13 3 -3 4 -12 1 -19z
m-3813 -43 c12 -39 21 -53 31 -48 11 3 15 -2 15 -18 0 -19 -2 -21 -10 -9 -6 9
-10 10 -10 3 0 -6 7 -19 16 -28 9 -9 14 -19 11 -22 -4 -3 3 -23 14 -45 11 -22
23 -38 26 -35 2 3 0 15 -7 26 -6 12 -7 21 -1 21 14 0 22 -29 15 -57 -5 -19 -4
-24 5 -18 8 4 11 2 9 -6 -4 -19 38 -102 63 -125 16 -14 22 -15 28 -5 6 10 10
9 15 -5 4 -9 2 -22 -4 -28 -8 -8 -9 -5 -4 9 6 16 4 18 -6 8 -10 -9 -7 -20 19
-51 17 -22 31 -42 31 -46 0 -3 -12 -13 -27 -21 -16 -9 -20 -14 -11 -11 10 3
20 2 22 -3 3 -4 -14 -8 -37 -8 -46 -1 -110 -21 -72 -23 15 0 12 -4 -13 -17
-18 -9 -29 -19 -23 -23 6 -3 -7 -6 -29 -5 -22 0 -40 3 -40 8 0 4 13 7 29 7 16
0 34 7 42 16 11 13 9 14 -17 9 -16 -4 -38 -10 -49 -13 -28 -8 -251 -2 -286 8
-18 5 -39 5 -52 -1 -19 -8 -18 -9 6 -4 21 4 27 3 21 -6 -5 -9 -2 -10 9 -6 9 3
19 3 21 -2 5 -8 -10 -12 -56 -13 -15 -1 -25 -5 -22 -9 3 -5 1 -9 -5 -9 -5 0
-11 5 -13 10 -2 7 -17 5 -42 -5 -25 -11 -36 -21 -32 -30 3 -9 0 -12 -10 -8
-22 8 -17 20 15 34 16 7 28 16 26 19 -2 4 9 6 26 5 16 -1 32 1 34 6 7 10 -25
20 -38 12 -7 -3 -3 3 7 15 11 12 16 22 11 22 -4 0 -1 7 6 17 12 14 16 36 19
115 2 23 19 33 33 19 9 -9 8 -11 -5 -6 -10 4 -18 3 -18 -3 0 -14 24 -22 40
-12 7 4 9 13 5 20 -5 8 -4 11 3 6 5 -3 12 0 15 6 2 7 7 10 11 7 3 -3 -5 -18
-19 -34 -15 -15 -24 -30 -21 -33 4 -3 7 -3 9 -1 41 55 76 108 79 119 2 8 9 21
16 28 7 8 10 24 7 36 -4 13 -3 17 2 8 7 -9 14 -3 25 21 14 29 14 34 2 34 -9 0
-13 -6 -9 -15 4 -12 3 -13 -10 -2 -17 14 -21 35 -5 25 6 -3 10 -2 10 4 0 5 9
8 20 6 21 -4 27 9 10 20 -5 3 -10 0 -11 -7 0 -10 -2 -10 -6 1 -4 11 -7 11 -14
0 -4 -7 -11 -10 -16 -6 -11 12 17 26 44 21 18 -3 26 1 33 22 6 14 7 30 4 36
-5 7 -2 8 6 3 9 -6 10 -2 5 15 -5 16 -4 20 5 15 9 -5 10 -1 5 15 -5 15 -4 20
4 16 10 -7 13 -3 15 27 1 13 18 36 27 37 3 0 13 -25 23 -55z m38 33 c-7 -7
-12 -8 -12 -2 0 14 12 26 19 19 2 -3 -1 -11 -7 -17z m2663 -25 c4 -49 -3 -59
-24 -37 -15 16 -15 21 -2 51 18 39 22 37 26 -14z m-2958 -3 c-1 -22 -5 -36 -9
-32 -7 7 0 72 8 72 1 0 2 -18 1 -40z m960 -7 c-3 -10 -5 -2 -5 17 0 19 2 27 5
18 2 -10 2 -26 0 -35z m5080 25 c-3 -8 -6 -5 -6 6 -1 11 2 17 5 13 3 -3 4 -12
1 -19z m-7736 -33 c-5 -27 -3 -49 6 -67 19 -40 9 -34 -16 8 -22 36 -29 60 -10
34 8 -12 10 -8 6 14 -3 16 0 35 7 42 15 16 15 15 7 -31z m1966 13 c-3 -7 -5
-2 -5 12 0 14 2 19 5 13 2 -7 2 -19 0 -25z m650 -8 c-1 -22 -5 -36 -9 -32 -7
7 0 72 8 72 1 0 2 -18 1 -40z m358 21 c-3 -6 -11 -11 -16 -11 -5 0 -4 6 3 14
14 16 24 13 13 -3z m716 -12 c-5 -13 -10 -19 -10 -12 -1 15 10 45 15 40 3 -2
0 -15 -5 -28z m539 -56 c0 -2 -5 -1 -11 3 -8 5 -10 -1 -7 -20 3 -14 1 -26 -3
-26 -5 0 -9 19 -8 43 1 23 -1 53 -5 67 -4 14 2 5 13 -19 12 -24 21 -45 21 -48z
m721 64 c-10 -9 -11 -8 -5 6 3 10 9 15 12 12 3 -3 0 -11 -7 -18z m967 -2 c-3
-3 -9 2 -12 12 -6 14 -5 15 5 6 7 -7 10 -15 7 -18z m1845 -18 c3 -22 2 -35 -4
-32 -5 4 -9 22 -9 42 0 45 5 40 13 -10z m-7793 7 c0 -8 -4 -12 -10 -9 -5 3
-10 13 -10 21 0 8 5 12 10 9 6 -3 10 -13 10 -21z m2031 -7 c-8 -8 -11 -7 -11
4 0 20 13 34 18 19 3 -7 -1 -17 -7 -23z m929 -3 c0 -3 -7 -1 -15 6 -8 7 -15
17 -15 22 0 5 7 3 15 -6 8 -8 15 -18 15 -22z m2947 14 c-3 -8 -6 -5 -6 6 -1
11 2 17 5 13 3 -3 4 -12 1 -19z m1900 0 c-3 -8 -6 -5 -6 6 -1 11 2 17 5 13 3
-3 4 -12 1 -19z m-7760 -20 c-3 -8 -6 -5 -6 6 -1 11 2 17 5 13 3 -3 4 -12 1
-19z m1103 -11 c0 -18 -2 -19 -10 -7 -13 20 -13 43 0 35 6 -3 10 -16 10 -28z
m4039 1 c6 -18 7 -28 2 -23 -10 12 -25 55 -18 55 3 0 10 -15 16 -32z m1498 0
c-3 -7 -5 -2 -5 12 0 14 2 19 5 13 2 -7 2 -19 0 -25z m1075 7 c3 -13 1 -22 -3
-19 -9 5 -13 44 -5 44 2 0 6 -11 8 -25z m-2788 -1 c9 -24 2 -26 -12 -4 -7 11
-8 20 -3 20 5 0 12 -7 15 -16z m-937 -16 c-3 -8 -6 -5 -6 6 -1 11 2 17 5 13 3
-3 4 -12 1 -19z m960 0 c-3 -8 -6 -5 -6 6 -1 11 2 17 5 13 3 -3 4 -12 1 -19z
m1673 -22 c0 -26 -6 -18 -14 19 -5 22 -4 26 4 15 5 -8 10 -24 10 -34z m-4449
7 c-12 -20 -14 -14 -5 12 4 9 9 14 11 11 3 -2 0 -13 -6 -23z m459 17 c0 -5 -4
-10 -10 -10 -5 0 -10 5 -10 10 0 6 5 10 10 10 6 0 10 -4 10 -10z m1041 -13
c-10 -9 -11 -8 -5 6 3 10 9 15 12 12 3 -3 0 -11 -7 -18z m2546 7 c-3 -3 -12
-4 -19 -1 -8 3 -5 6 6 6 11 1 17 -2 13 -5z m-180 -41 c-3 -10 -5 -4 -5 12 0
17 2 24 5 18 2 -7 2 -21 0 -30z m600 5 c-3 -7 -5 -2 -5 12 0 14 2 19 5 13 2
-7 2 -19 0 -25z m-6457 -8 c0 -10 5 -22 10 -25 6 -3 10 -13 10 -21 0 -8 -4
-14 -10 -14 -5 0 -10 7 -10 15 0 8 -3 15 -7 15 -5 0 -8 13 -9 30 -1 16 3 27 7
24 5 -3 9 -14 9 -24z m2001 -1 c-5 -13 -10 -19 -10 -12 -1 15 10 45 15 40 3
-2 0 -15 -5 -28z m2036 -1 c-3 -8 -6 -5 -6 6 -1 11 2 17 5 13 3 -3 4 -12 1
-19z m926 2 c3 -11 1 -18 -4 -14 -5 3 -9 12 -9 20 0 20 7 17 13 -6z m-2596
-22 c-3 -7 -5 -2 -5 12 0 14 2 19 5 13 2 -7 2 -19 0 -25z m1130 10 c-3 -8 -6
-5 -6 6 -1 11 2 17 5 13 3 -3 4 -12 1 -19z m1113 12 c0 -5 -4 -10 -10 -10 -5
0 -10 5 -10 10 0 6 5 10 10 10 6 0 10 -4 10 -10z m873 -12 c-4 -19 -3 -20 7
-8 8 10 10 11 8 2 -6 -22 -23 -19 -26 6 -2 12 1 22 6 22 6 0 8 -10 5 -22z
m-2040 -9 c3 -12 3 -18 0 -15 -4 3 -12 1 -19 -5 -10 -8 -11 -6 -1 15 14 31 13
31 20 5z m557 -14 c0 -5 -5 -3 -10 5 -5 8 -10 20 -10 25 0 6 5 3 10 -5 5 -8
10 -19 10 -25z m2408 15 c-7 -10 -14 -18 -15 -16 -6 6 9 36 18 36 5 0 4 -9 -3
-20z m-4930 -2 c8 -10 5 -13 -13 -13 -18 0 -21 3 -13 13 6 6 12 12 13 12 1 0
7 -6 13 -12z m1502 3 c0 -5 -7 -11 -14 -14 -10 -4 -13 -1 -9 9 6 15 23 19 23
5z m4510 -19 c0 -15 -2 -15 -10 -2 -13 20 -13 33 0 25 6 -3 10 -14 10 -23z
m-1613 -4 c-3 -8 -6 -5 -6 6 -1 11 2 17 5 13 3 -3 4 -12 1 -19z m573 6 c0 -2
-7 -4 -15 -4 -8 0 -15 4 -15 10 0 5 7 7 15 4 8 -4 15 -8 15 -10z m-4566 -19
c-7 -16 -24 -21 -24 -6 0 8 7 13 27 20 1 1 0 -6 -3 -14z m1115 -25 c0 -10 -3
-8 -9 5 -12 27 -12 43 0 25 5 -8 9 -22 9 -30z m621 12 c0 -15 -2 -15 -10 -2
-13 20 -13 33 0 25 6 -3 10 -14 10 -23z m748 -7 c-14 -31 -18 -28 -11 7 3 15
9 25 14 23 4 -3 3 -17 -3 -30z m-3598 -7 c0 -6 -7 -5 -15 2 -8 7 -15 17 -15
22 0 6 7 5 15 -2 8 -7 15 -17 15 -22z m2204 -23 c-11 -28 -20 -15 -16 22 4 33
6 35 13 15 5 -12 6 -29 3 -37z m925 10 c0 -5 -4 -3 -9 5 -7 11 -10 11 -10 2 0
-7 -4 -10 -10 -7 -6 4 -5 13 3 25 11 19 12 19 19 2 3 -9 7 -21 7 -27z m661 35
c0 -5 -2 -10 -4 -10 -3 0 -8 5 -11 10 -3 6 -1 10 4 10 6 0 11 -4 11 -10z
m1050 6 c0 -2 -7 -7 -16 -10 -8 -3 -12 -2 -9 4 6 10 25 14 25 6z m2074 -20
c-3 -9 -10 -13 -15 -10 -5 3 -3 11 4 19 15 16 19 13 11 -9z m-5310 -35 c-6 -6
-11 1 -18 29 l-7 25 15 -25 c8 -14 12 -27 10 -29z m5077 25 c-6 -8 -21 -31
-32 -52 -11 -22 -17 -28 -13 -15 8 32 45 93 52 87 3 -3 0 -12 -7 -20z m-5123
-6 c-7 -10 -14 -18 -15 -16 -6 6 9 36 18 36 5 0 4 -9 -3 -20z m-1346 -8 c4
-13 0 -18 -13 -17 -10 1 -22 5 -26 10 -5 4 -2 5 5 1 7 -4 15 -1 18 8 8 20 11
20 16 -2z m4434 -7 c0 -14 -4 -25 -8 -25 -4 0 -6 -6 -4 -12 1 -7 1 -9 -2 -5
-2 4 -11 0 -19 -10 -8 -10 -13 -13 -11 -8 5 14 41 85 44 85 1 0 1 -11 0 -25z
m-5406 5 c0 -5 -4 -10 -10 -10 -5 0 -10 5 -10 10 0 6 5 10 10 10 6 0 10 -4 10
-10z m66 -23 c1 -12 3 -26 3 -31 1 -4 7 -6 15 -3 8 3 13 -1 12 -11 0 -10 5
-16 14 -14 8 2 11 0 7 -4 -11 -11 -38 -14 -31 -3 3 5 1 9 -4 9 -6 0 -13 8 -17
18 -9 24 -16 76 -8 68 3 -3 7 -16 9 -29z m1337 18 c-3 -9 -8 -14 -10 -11 -3 3
-2 9 2 15 9 16 15 13 8 -4z m473 -21 c3 -16 2 -26 -1 -23 -3 4 -8 19 -11 35
-3 16 -2 26 1 23 3 -4 8 -19 11 -35z m464 27 c0 -6 -4 -13 -10 -16 -5 -3 -10
1 -10 9 0 9 5 16 10 16 6 0 10 -4 10 -9z m675 -1 c3 -5 1 -10 -4 -10 -6 0 -11
5 -11 10 0 6 2 10 4 10 3 0 8 -4 11 -10z m361 -22 c-9 -12 -16 -19 -16 -15 0
11 24 47 28 42 2 -2 -3 -14 -12 -27z m717 -2 c-3 -5 2 -15 12 -23 11 -7 14
-13 7 -13 -16 0 -41 40 -35 57 5 12 7 12 14 2 4 -7 5 -17 2 -23z m268 11 c-10
-9 -11 -8 -5 6 3 10 9 15 12 12 3 -3 0 -11 -7 -18z m189 9 c0 -26 -12 -46 -28
-46 -13 0 -13 2 3 14 11 8 16 19 12 30 -4 9 -2 16 3 16 6 0 10 -6 10 -14z
m2000 10 c0 -3 -4 -8 -10 -11 -5 -3 -10 -1 -10 4 0 6 5 11 10 11 6 0 10 -2 10
-4z m925 -18 c5 -4 0 -6 -12 -6 -13 1 -19 7 -16 15 3 8 8 10 12 6 3 -4 10 -11
16 -15z m-6695 -19 c0 -6 -4 -7 -10 -4 -5 3 -10 11 -10 16 0 6 5 7 10 4 6 -3
10 -11 10 -16z m5115 11 c3 -5 2 -10 -4 -10 -5 0 -13 5 -16 10 -3 6 -2 10 4
10 5 0 13 -4 16 -10z m420 -39 c-14 -13 -16 -13 -11 -1 3 8 9 24 13 35 7 19 7
19 11 1 2 -10 -4 -26 -13 -35z m-3827 8 c-6 -16 -12 -28 -14 -26 -5 5 13 57
20 57 3 0 0 -14 -6 -31z m912 16 c0 -8 -4 -15 -10 -15 -5 0 -7 7 -4 15 4 8 8
15 10 15 2 0 4 -7 4 -15z m4213 -5 c-3 -11 -9 -17 -15 -14 -5 3 -4 12 3 20 16
19 18 18 12 -6z m19 -12 c-8 -8 -9 -4 -5 13 4 13 8 18 11 10 2 -7 -1 -18 -6
-23z m-6822 -32 c0 -26 -6 -18 -14 19 -5 22 -4 26 4 15 5 -8 10 -24 10 -34z
m600 34 c0 -5 -4 -10 -10 -10 -5 0 -10 5 -10 10 0 6 5 10 10 10 6 0 10 -4 10
-10z m680 0 c0 -5 -5 -10 -11 -10 -5 0 -7 5 -4 10 3 6 8 10 11 10 2 0 4 -4 4
-10z m757 -12 c-3 -8 -6 -5 -6 6 -1 11 2 17 5 13 3 -3 4 -12 1 -19z m3087 4
c3 7 4 4 1 -8 -6 -24 3 -54 16 -54 5 0 6 12 3 28 -4 15 -4 24 0 21 4 -4 9 -26
11 -49 l4 -42 -25 29 c-13 15 -24 36 -24 46 0 9 -4 17 -10 17 -5 0 -10 8 -10
18 1 16 1 16 14 -1 11 -14 15 -15 20 -5z m-3105 -25 c0 -21 -1 -21 -9 -2 -12
28 -12 37 0 30 6 -3 10 -16 9 -28z m525 18 c-4 -8 -8 -15 -10 -15 -2 0 -4 7
-4 15 0 8 4 15 10 15 5 0 7 -7 4 -15z m2990 -9 c-3 -9 -10 -16 -15 -16 -6 0
-5 9 1 21 13 24 24 20 14 -5z m1233 2 c-3 -8 -6 -5 -6 6 -1 11 2 17 5 13 3 -3
4 -12 1 -19z m-5296 -2 c5 3 9 0 9 -5 0 -6 -5 -11 -11 -11 -5 0 -7 -4 -4 -10
3 -5 1 -10 -4 -10 -6 0 -11 5 -11 11 0 6 -11 1 -25 -12 -24 -24 -24 -24 -4
-39 11 -9 17 -19 14 -22 -7 -6 -49 31 -43 37 2 2 17 19 33 38 17 18 32 30 33
25 2 -4 8 -6 13 -2z m1096 -8 c-3 -8 -6 -5 -6 6 -1 11 2 17 5 13 3 -3 4 -12 1
-19z m713 7 c7 -8 8 -15 2 -15 -5 0 -15 7 -22 15 -7 8 -8 15 -2 15 5 0 15 -7
22 -15z m-2004 -10 c17 -16 14 -18 -10 -9 -9 3 -16 10 -16 15 0 13 9 11 26 -6z
m1317 0 c-3 -9 -8 -14 -10 -11 -3 3 -2 9 2 15 9 16 15 13 8 -4z m741 -17 c-3
-4 2 -8 12 -8 14 0 14 -3 4 -15 -7 -9 -10 -19 -6 -22 4 -4 11 -1 16 7 8 13 10
13 10 -1 0 -9 -6 -19 -14 -22 -18 -7 -38 16 -31 35 3 8 -1 21 -10 28 -12 10
-13 15 -3 21 13 8 30 -9 22 -23z m3456 12 c-7 -5 -9 -14 -5 -21 6 -10 5 -11
-4 -3 -14 12 -4 47 11 38 6 -4 6 -9 -2 -14z m-6575 -56 c-13 -16 -14 -15 -7
26 5 32 6 33 12 10 3 -14 1 -30 -5 -36z m1432 34 c-3 -8 -6 -5 -6 6 -1 11 2
17 5 13 3 -3 4 -12 1 -19z m2411 9 c14 4 14 3 2 -5 -16 -12 -30 -7 -29 11 0 9
2 9 5 0 3 -7 13 -9 22 -6z m465 2 c-6 -6 -9 -17 -7 -24 3 -7 1 -15 -4 -19 -5
-3 -8 3 -7 12 1 20 13 42 23 42 3 0 1 -5 -5 -11z m252 1 c-3 -5 -12 -10 -18
-10 -7 0 -6 4 3 10 19 12 23 12 15 0z m-4505 -44 c0 -5 -7 -3 -15 4 -8 7 -15
20 -15 28 0 13 3 12 15 -4 8 -10 15 -23 15 -28z m464 23 c-3 -5 -10 -6 -16 -3
-7 5 -9 1 -5 -9 9 -24 0 -21 -14 4 -8 15 -8 19 0 15 6 -4 11 -3 11 3 0 6 7 8
15 5 8 -4 12 -10 9 -15z m404 -24 c8 16 10 16 16 -1 4 -10 4 -15 0 -11 -4 4
-13 2 -20 -3 -9 -8 -18 -3 -33 16 -12 15 -21 31 -21 37 0 6 11 -4 24 -22 21
-28 25 -30 34 -16z m1 28 c-7 -8 -15 -10 -18 -6 -4 4 -10 11 -14 14 -4 4 4 7
18 7 21 0 23 -3 14 -15z m1370 -4 c-22 -14 -33 -10 -19 6 7 8 17 12 22 9 6 -4
5 -10 -3 -15z m241 11 c0 -4 -7 -13 -16 -21 -13 -10 -17 -10 -25 2 -7 12 -9
12 -9 0 0 -8 -3 -11 -7 -7 -5 4 0 13 9 20 19 14 48 17 48 6z m381 -11 c7 -12
9 -12 9 0 0 8 3 12 6 8 3 -3 1 -14 -5 -24 -6 -11 -11 -13 -11 -5 0 7 -4 10
-10 7 -6 -4 -7 1 -3 11 4 11 3 15 -5 10 -6 -3 -13 -2 -16 3 -4 5 1 8 10 7 8
-1 20 -9 25 -17z m986 4 c2 -6 -3 -18 -12 -26 -20 -20 -19 -31 1 -23 13 5 14
4 6 -7 -7 -8 -9 -16 -6 -19 3 -3 0 -9 -7 -14 -7 -4 -10 -3 -5 4 3 6 -1 18 -10
27 -15 14 -15 17 5 34 25 22 28 36 5 27 -9 -3 -12 -2 -9 5 8 12 27 7 32 -8z
m574 -10 c-12 -20 -14 -14 -5 12 4 9 9 14 11 11 3 -2 0 -13 -6 -23z m43 12
c-4 -8 -11 -15 -16 -15 -6 0 -5 6 2 15 7 8 14 15 16 15 2 0 1 -7 -2 -15z m742
-24 c-1 -16 -5 -33 -9 -38 -5 -4 -5 0 -2 9 4 9 2 19 -4 23 -6 3 -11 11 -11 16
0 6 5 7 12 3 8 -5 9 -2 5 10 -4 9 -3 15 2 12 5 -3 8 -19 7 -35z m-6346 19 c0
-5 -2 -10 -4 -10 -3 0 -8 5 -11 10 -3 6 -1 10 4 10 6 0 11 -4 11 -10z m2910 0
c0 -5 -2 -10 -4 -10 -3 0 -8 5 -11 10 -3 6 -1 10 4 10 6 0 11 -4 11 -10z
m-1529 -53 c-11 -11 -31 -1 -30 16 0 9 2 9 6 0 9 -24 23 -13 18 15 -5 26 -5
27 5 3 7 -15 7 -28 1 -34z m835 17 c-7 -19 -26 -9 -25 14 0 14 2 13 9 -3 8
-18 9 -18 10 5 1 14 4 19 7 12 3 -7 2 -20 -1 -28z m-646 1 c14 -19 14 -19 -2
-6 -10 7 -18 18 -18 24 0 6 1 8 3 6 1 -2 9 -13 17 -24z m1611 3 c21 -26 24
-38 9 -38 -5 0 -10 5 -10 12 0 6 -7 20 -17 30 -9 10 -13 18 -9 18 4 0 16 -10
27 -22z m-3166 -38 c-5 -22 -10 -29 -18 -21 -7 7 -7 14 2 24 6 8 8 23 5 33 -5
15 -4 16 6 7 8 -7 10 -22 5 -43z m2953 27 c-2 -13 1 -29 9 -35 7 -7 13 -18 13
-25 0 -7 -4 -6 -10 3 -8 13 -10 13 -10 1 0 -11 -4 -9 -14 5 -9 12 -11 23 -5
29 5 5 9 17 9 27 0 10 3 18 6 18 4 0 4 -10 2 -23z m3241 1 c9 -24 -11 -58 -33
-58 -6 0 -4 5 4 10 13 9 13 11 0 21 -12 9 -12 10 4 5 15 -5 18 -2 14 19 -6 31
0 32 11 3z m-5022 -26 c23 -30 24 -52 1 -52 -7 0 -6 6 2 15 16 20 1 19 -20 0
-16 -15 -17 -13 -15 27 2 24 1 38 -1 32 -3 -6 -16 -9 -29 -6 -35 6 -31 17 6
16 22 -1 38 -10 56 -32z m4033 4 c0 -6 -5 -3 -11 7 -9 15 -12 16 -25 2 -19
-18 -37 -20 -31 -2 2 6 9 12 15 12 5 0 14 3 18 7 9 9 34 -10 34 -26z m-1190
-11 c0 -5 -5 -3 -10 5 -5 8 -10 20 -10 25 0 6 5 3 10 -5 5 -8 10 -19 10 -25z
m1326 12 c4 -4 -2 -7 -14 -7 -12 0 -22 4 -22 9 0 10 26 9 36 -2z m-4377 -1
c-8 -8 -60 -15 -55 -8 2 4 17 9 32 10 15 1 25 0 23 -2z m1362 -19 c-10 -9 -11
-8 -5 6 3 10 9 15 12 12 3 -3 0 -11 -7 -18z m104 3 c-5 -15 -3 -18 9 -14 9 3
16 1 16 -6 0 -6 -5 -8 -12 -4 -7 5 -9 2 -6 -8 4 -8 1 -15 -6 -15 -7 0 -11 12
-10 26 2 36 3 41 10 41 3 0 3 -9 -1 -20z m1065 10 c0 -5 -2 -10 -4 -10 -3 0
-8 5 -11 10 -3 6 -1 10 4 10 6 0 11 -4 11 -10z m557 -22 c-3 -7 -5 -2 -5 12 0
14 2 19 5 13 2 -7 2 -19 0 -25z m2360 19 c6 -4 13 -1 16 5 3 10 7 10 17 1 10
-10 10 -18 0 -42 -7 -17 -19 -31 -27 -31 -10 0 -8 6 7 22 11 12 20 25 20 30 0
12 -18 9 -22 -4 -2 -6 -15 -12 -28 -13 -21 -2 -22 -1 -5 11 10 8 15 17 12 21
-4 4 -13 1 -19 -5 -15 -15 -31 -16 -22 0 5 8 2 9 -10 5 -9 -4 -15 -3 -12 2 7
10 56 9 73 -2z m913 -17 c-6 -12 -14 -20 -17 -17 -2 3 1 14 8 26 17 26 24 19
9 -9z m-5180 5 c-7 -8 -17 -15 -23 -15 -6 0 -2 7 9 15 25 19 30 19 14 0z m235
5 c3 -5 2 -10 -4 -10 -5 0 -13 5 -16 10 -3 6 -2 10 4 10 5 0 13 -4 16 -10z
m969 -6 c4 -10 1 -14 -6 -12 -15 5 -23 28 -10 28 5 0 13 -7 16 -16z m-2063
-19 c5 4 9 1 9 -4 0 -14 -27 -14 -35 -1 -3 6 -3 16 2 23 5 9 8 7 11 -6 2 -9 8
-15 13 -12z m2192 -16 c-9 -32 -18 -29 -19 7 0 25 3 31 12 23 6 -5 10 -19 7
-30z m663 16 c-16 -14 -33 -25 -38 -25 -12 0 44 49 57 50 6 0 -3 -11 -19 -25z
m1029 15 c3 -5 -1 -10 -10 -10 -9 0 -13 5 -10 10 3 6 8 10 10 10 2 0 7 -4 10
-10z m-2015 -15 c-7 -9 -15 -13 -19 -10 -3 3 1 10 9 15 21 14 24 12 10 -5z
m50 12 c0 -2 -10 -12 -21 -23 -22 -19 -22 -19 -8 4 12 19 29 30 29 19z m2122
-17 c28 -26 11 -26 -22 0 -14 11 -19 20 -12 20 7 0 22 -9 34 -20z m45 14 c-3
-3 -12 -4 -19 -1 -8 3 -5 6 6 6 11 1 17 -2 13 -5z m1113 -4 c0 -5 -4 -10 -10
-10 -5 0 -10 5 -10 10 0 6 5 10 10 10 6 0 10 -4 10 -10z m-2970 -7 c0 -5 -9
-21 -20 -38 -11 -16 -20 -25 -20 -18 0 6 5 15 10 18 6 3 10 15 10 26 0 10 5
19 10 19 6 0 10 -3 10 -7z m2630 -3 c0 -5 -5 -10 -11 -10 -5 0 -7 5 -4 10 3 6
8 10 11 10 2 0 4 -4 4 -10z m1143 -5 c4 -8 1 -17 -5 -21 -7 -4 -8 -3 -4 4 4 7
2 12 -4 12 -6 0 -8 5 -5 10 8 14 12 13 18 -5z m84 -7 c-3 -8 -6 -5 -6 6 -1 11
2 17 5 13 3 -3 4 -12 1 -19z m-4990 6 c-3 -3 -12 -4 -19 -1 -8 3 -5 6 6 6 11
1 17 -2 13 -5z m953 -4 c0 -5 -4 -10 -9 -10 -6 0 -13 5 -16 10 -3 6 1 10 9 10
9 0 16 -4 16 -10z m1856 -9 c-10 -11 -32 -25 -49 -32 -18 -7 -34 -16 -37 -20
-3 -5 -12 -4 -20 1 -13 8 -13 10 1 10 9 0 20 7 23 16 4 10 13 13 26 9 11 -4
20 -2 20 4 0 6 -5 11 -12 11 -6 0 -8 3 -5 6 4 4 13 2 21 -5 11 -9 15 -8 20 4
3 8 11 15 17 15 7 0 5 -7 -5 -19z m-2054 -18 c-7 -3 -18 -11 -25 -18 -11 -10
-18 -10 -36 0 -19 9 -20 13 -8 18 8 3 24 3 35 0 11 -2 23 0 27 7 4 6 10 8 14
4 3 -4 0 -9 -7 -11z m2988 13 c0 -3 -4 -8 -10 -11 -5 -3 -10 -1 -10 4 0 6 5
11 10 11 6 0 10 -2 10 -4z m-5059 -23 c13 -17 13 -17 -6 -3 -11 8 -22 16 -24
17 -2 2 0 3 6 3 6 0 17 -8 24 -17z m313 8 c3 -5 -2 -15 -12 -22 -15 -12 -16
-12 -5 2 7 9 10 19 6 22 -3 4 -4 7 0 7 3 0 8 -4 11 -9z m681 -1 c3 -5 2 -10
-4 -10 -5 0 -13 5 -16 10 -3 6 -2 10 4 10 5 0 13 -4 16 -10z m968 -7 c-5 -12
-3 -14 7 -8 8 5 11 4 6 -3 -4 -6 -14 -8 -23 -5 -12 5 -14 3 -8 -7 6 -9 4 -11
-4 -6 -9 6 -8 13 5 27 21 23 25 24 17 2z m341 2 c11 -8 15 -15 10 -15 -6 0
-19 7 -30 15 -10 8 -14 14 -9 14 6 0 19 -6 29 -14z m2013 0 c0 -8 -4 -12 -9
-9 -5 3 -6 10 -3 15 9 13 12 11 12 -6z m131 -2 c-6 -7 -12 -13 -13 -13 -2 0
-5 6 -8 13 -3 7 3 13 14 13 13 0 15 -3 7 -13z m2000 3 c9 -6 -2 -23 -40 -61
-50 -50 -53 -52 -66 -34 -7 11 -19 16 -25 13 -7 -4 -9 -3 -4 1 13 15 46 13 40
-2 -7 -19 0 -16 32 11 17 15 23 26 16 30 -6 4 -9 12 -5 17 4 6 11 6 20 -2 8
-7 14 -7 14 -1 0 15 -26 33 -35 24 -5 -4 -5 -2 -2 4 7 12 36 12 55 0z m-4068
-6 c24 -15 7 -18 -20 -3 -14 7 -18 13 -10 13 8 0 22 -4 30 -10z m-2035 -16
c-9 -9 -19 -13 -23 -10 -3 4 0 11 8 16 24 15 33 11 15 -6z m25 -14 c0 -5 -5
-10 -11 -10 -5 0 -7 5 -4 10 3 6 8 10 11 10 2 0 4 -4 4 -10z m3639 -11 c-15
-9 -32 -2 -24 11 3 5 13 6 21 3 12 -4 13 -8 3 -14z m-2629 -3 c0 -2 -7 -7 -16
-10 -8 -3 -12 -2 -9 4 6 10 25 14 25 6z m4710 -10 c-7 -7 -13 -7 -20 0 -6 6
-3 10 10 10 13 0 16 -4 10 -10z m-5088 -5 c2 -5 23 -25 46 -45 53 -44 40 -48
-14 -5 -41 32 -62 59 -45 59 5 0 11 -4 13 -9z m331 2 c-7 -2 -13 -9 -13 -15 0
-6 7 -8 14 -5 10 4 13 1 9 -9 -7 -19 -19 -18 -27 2 -7 19 1 34 17 33 9 0 9 -2
0 -6z m3721 -2 c3 -5 -1 -11 -9 -14 -9 -4 -12 -1 -8 9 6 16 10 17 17 5z
m-3578 -37 c-16 -12 -16 -13 1 -18 16 -4 16 -5 -1 -3 -12 1 -20 10 -21 23 -1
16 3 20 18 16 19 -5 19 -6 3 -18z m1444 22 c0 -3 -4 -8 -10 -11 -5 -3 -10 -1
-10 4 0 6 5 11 10 11 6 0 10 -2 10 -4z m-920 -33 l31 -28 -53 -1 c-29 0 -45 1
-35 4 9 2 15 8 12 13 -8 12 2 11 26 -1 30 -16 23 3 -8 22 -16 10 -22 18 -16
18 7 0 27 -12 43 -27z m411 20 c-19 -4 -21 -7 -10 -14 11 -8 10 -9 -5 -7 -33
5 -28 24 6 25 24 0 26 -1 9 -4z m632 -8 c-3 -9 -8 -14 -10 -11 -3 3 -2 9 2 15
9 16 15 13 8 -4z m262 -19 c-16 -15 -32 -26 -37 -26 -5 0 -6 -5 -3 -10 3 -6
-1 -13 -10 -16 -13 -5 -14 -9 -4 -15 7 -4 14 -14 15 -23 2 -13 -2 -14 -17 -5
-11 5 -17 14 -14 20 4 5 0 9 -7 10 -10 0 -10 2 0 6 6 2 10 9 7 14 -4 5 1 6 10
3 9 -4 15 -2 13 3 -3 10 63 75 70 68 2 -2 -8 -15 -23 -29z m2040 24 c3 -5 1
-10 -4 -10 -6 0 -11 5 -11 10 0 6 2 10 4 10 3 0 8 -4 11 -10z m642 4 c-3 -3
-12 -4 -19 -1 -8 3 -5 6 6 6 11 1 17 -2 13 -5z m-6439 -20 c2 -1 -18 -2 -44
-1 -33 0 -42 3 -29 8 17 6 63 2 73 -7z m1433 -1 c13 -16 12 -17 -3 -4 -10 7
-18 15 -18 17 0 8 8 3 21 -13z m291 -13 c-18 -17 -28 -30 -22 -30 15 0 12 -17
-3 -23 -24 -9 -12 29 18 57 15 14 31 26 34 26 3 0 -9 -14 -27 -30z m1212 21
c19 -7 18 -8 -4 -14 -13 -3 -26 -4 -29 -2 -2 3 2 5 10 6 8 0 6 4 -6 9 -25 11
2 12 29 1z m406 5 c0 -2 -7 -7 -16 -10 -8 -3 -12 -2 -9 4 6 10 25 14 25 6z
m1510 0 c0 -2 -7 -7 -16 -10 -8 -3 -12 -2 -9 4 6 10 25 14 25 6z m679 -11 c7
3 8 0 5 -9 -7 -17 11 -22 19 -6 3 6 4 5 3 -2 -1 -7 -18 -13 -37 -14 -19 -1
-28 1 -21 3 6 3 12 9 12 15 0 6 -7 8 -14 5 -10 -4 -13 -1 -9 9 4 11 9 12 19 3
7 -6 18 -8 23 -4z m-4209 1 c0 -2 -7 -7 -16 -10 -8 -3 -12 -2 -9 4 6 10 25 14
25 6z m2055 -6 c-3 -5 -10 -10 -16 -10 -5 0 -9 5 -9 10 0 6 7 10 16 10 8 0 12
-4 9 -10z m159 -21 c-3 -5 -11 -9 -17 -8 -8 0 -8 2 1 6 10 4 10 8 0 21 -12 15
-11 16 4 3 10 -7 15 -17 12 -22z m411 21 c18 -8 17 -9 -7 -9 -15 -1 -30 4 -33
9 -7 12 12 12 40 0z m125 -1 c8 0 2 -5 -14 -9 -16 -5 -43 -6 -60 -3 -31 7 -31
7 -6 14 14 4 34 6 45 3 11 -2 27 -4 35 -5z m867 5 c-3 -3 -12 -4 -19 -1 -8 3
-5 6 6 6 11 1 17 -2 13 -5z m819 -19 c-9 -9 -16 -13 -16 -8 0 12 22 34 28 28
2 -2 -3 -11 -12 -20z m684 21 c0 -2 -7 -7 -16 -10 -8 -3 -12 -2 -9 4 6 10 25
14 25 6z m-6167 -13 c-7 -2 -19 -2 -25 0 -7 3 -2 5 12 5 14 0 19 -2 13 -5z
m698 -9 c-18 -8 -36 -13 -39 -10 -6 7 37 25 58 25 8 -1 0 -7 -19 -15z m1217 9
c-10 -2 -28 -2 -40 0 -13 2 -5 4 17 4 22 1 32 -1 23 -4z m155 0 c-7 -2 -19 -2
-25 0 -7 3 -2 5 12 5 14 0 19 -2 13 -5z m1447 -2 c0 -5 -7 -12 -16 -15 -14 -5
-15 -4 -4 9 14 17 20 19 20 6z m1105 3 c13 -5 14 -8 3 -15 -7 -5 -17 -9 -23
-9 -5 0 -3 5 5 10 20 13 -1 13 -36 0 -20 -8 -30 -8 -38 1 -8 9 -8 10 1 5 6 -3
22 -2 35 3 29 12 33 12 53 5z m85 -4 c-19 -13 -30 -13 -30 0 0 6 10 10 23 10
18 0 19 -2 7 -10z m169 6 c-2 -2 -26 -6 -54 -9 -32 -4 -43 -3 -30 3 19 8 93
14 84 6z m154 -3 c-7 -2 -19 -2 -25 0 -7 3 -2 5 12 5 14 0 19 -2 13 -5z m44 1
c-3 -3 -12 -4 -19 -1 -8 3 -5 6 6 6 11 1 17 -2 13 -5z m763 -1 c-8 -3 -23 -10
-32 -15 -11 -5 -18 -5 -18 1 0 10 23 18 50 19 13 0 13 0 0 -5z m207 1 c-3 -3
-12 -4 -19 -1 -8 3 -5 6 6 6 11 1 17 -2 13 -5z m50 0 c-3 -3 -12 -4 -19 -1 -8
3 -5 6 6 6 11 1 17 -2 13 -5z m-5912 -13 c3 -5 0 -13 -6 -17 -8 -5 -9 -3 -4 6
6 10 -1 11 -31 7 -27 -5 -33 -4 -19 3 27 12 53 12 60 1z m720 -1 c7 -12 -2
-12 -30 0 -19 8 -19 9 2 9 12 1 25 -3 28 -9z m1615 0 c0 -5 -5 -10 -11 -10 -5
0 -7 5 -4 10 3 6 8 10 11 10 2 0 4 -4 4 -10z m180 6 c0 -2 -11 -6 -25 -8 -13
-3 -22 -1 -19 3 5 9 44 13 44 5z m245 -6 c3 -5 1 -10 -4 -10 -6 0 -11 5 -11
10 0 6 2 10 4 10 3 0 8 -4 11 -10z m118 3 c-7 -2 -19 -2 -25 0 -7 3 -2 5 12 5
14 0 19 -2 13 -5z m616 -9 c10 -9 -45 -3 -59 6 -11 7 -5 8 20 4 19 -4 37 -8
39 -10z m456 6 c-11 -5 -27 -9 -35 -9 -13 -1 -13 0 0 9 8 5 24 9 35 9 l20 0
-20 -9z m782 4 c-3 -3 -12 -4 -19 -1 -8 3 -5 6 6 6 11 1 17 -2 13 -5z m608 -4
c3 -5 1 -10 -4 -10 -6 0 -11 5 -11 10 0 6 2 10 4 10 3 0 8 -4 11 -10z m482 4
c-3 -3 -12 -4 -19 -1 -8 3 -5 6 6 6 11 1 17 -2 13 -5z m-6000 -10 c-3 -3 -12
-4 -19 -1 -8 3 -5 6 6 6 11 1 17 -2 13 -5z m4188 -4 c3 -5 -1 -10 -9 -10 -8 0
-18 5 -21 10 -3 6 1 10 9 10 8 0 18 -4 21 -10z m902 4 c-3 -3 -12 -4 -19 -1
-8 3 -5 6 6 6 11 1 17 -2 13 -5z m-5718 -30 c-13 -16 -22 -12 -25 10 -1 9 5
12 17 9 15 -4 17 -8 8 -19z m5133 -6 c-18 -19 -24 -20 -34 -9 -7 8 -8 11 -2 8
6 -4 19 2 29 13 10 11 21 18 24 15 2 -3 -5 -15 -17 -27z m-4276 -6 c-4 -3 -14
2 -24 12 -16 18 -16 18 6 6 13 -6 21 -14 18 -18z m2004 -4 c0 -26 -13 -16 -17
13 -2 12 1 18 7 14 5 -3 10 -16 10 -27z m-2810 7 c7 -8 8 -15 2 -15 -5 0 -15
7 -22 15 -7 8 -8 15 -2 15 5 0 15 -7 22 -15z m785 -23 c-2 -2 -13 2 -24 10
-12 8 -18 17 -15 21 3 3 14 -2 25 -11 10 -9 17 -18 14 -20z m2260 28 c-3 -5
-16 -15 -28 -21 -19 -9 -19 -8 3 10 28 23 34 26 25 11z m1790 1 c3 -5 2 -12
-3 -15 -5 -3 -9 1 -9 9 0 17 3 19 12 6z m-4865 -20 c0 -5 8 -11 18 -13 11 -2
13 -6 6 -10 -6 -4 -19 1 -29 12 -10 12 -13 20 -7 20 7 0 12 -4 12 -9z m2050
-1 c0 -5 -2 -10 -4 -10 -3 0 -8 5 -11 10 -3 6 -1 10 4 10 6 0 11 -4 11 -10z
m745 0 c-3 -5 -11 -10 -16 -10 -6 0 -7 5 -4 10 3 6 11 10 16 10 6 0 7 -4 4
-10z m100 -13 c20 -20 20 -20 -2 -8 -28 14 -36 14 -27 -1 4 -7 3 -9 -1 -5 -13
12 -14 34 -1 34 6 0 20 -9 31 -20z m-2038 -2 c0 -8 -4 -12 -9 -9 -4 3 -8 9 -8
15 0 5 4 9 8 9 5 0 9 -7 9 -15z m4038 5 c-3 -5 -12 -10 -18 -10 -7 0 -6 4 3
10 19 12 23 12 15 0z m176 0 c10 -6 19 -15 19 -21 0 -6 -7 -3 -16 5 -18 18
-39 22 -28 4 4 -7 3 -8 -5 -4 -6 4 -9 12 -6 17 8 11 12 11 36 -1z m-4244 -16
c-3 -3 -12 -4 -19 -1 -8 3 -5 6 6 6 11 1 17 -2 13 -5z m253 -8 c0 -8 -6 -17
-12 -20 -7 -3 -3 -3 10 0 12 3 22 1 22 -5 0 -18 -15 -20 -40 -5 -14 7 -19 13
-12 14 6 0 12 7 12 15 0 8 5 15 10 15 6 0 10 -6 10 -14z m1743 7 c-7 -2 -19
-2 -25 0 -7 3 -2 5 12 5 14 0 19 -2 13 -5z m2121 -2 c6 -10 -24 -25 -32 -16
-3 3 1 5 9 6 8 0 6 4 -6 9 -19 8 -19 9 2 9 12 1 24 -3 27 -8z m-4744 -11 c13
-9 13 -10 0 -10 -8 0 -22 5 -30 10 -13 9 -13 10 0 10 8 0 22 -5 30 -10z m1620
0 c8 6 20 10 25 9 6 0 -1 -6 -14 -13 -26 -14 -73 -10 -50 5 8 4 16 4 19 -1 3
-5 12 -5 20 0z m1313 3 c-7 -2 -19 -2 -25 0 -7 3 -2 5 12 5 14 0 19 -2 13 -5z
m672 -2 c11 -5 29 -4 40 1 15 8 17 8 9 -1 -13 -14 -77 -24 -69 -11 3 4 -1 11
-7 13 -7 3 -8 5 -3 6 6 0 19 -4 30 -8z m1080 -7 c26 10 16 -2 -15 -18 -17 -8
-28 -10 -25 -5 4 5 -4 10 -17 10 l-23 2 23 4 c14 3 20 9 15 16 -4 7 0 6 10 -2
9 -7 24 -11 32 -7z m975 6 c8 -5 11 -10 5 -10 -5 0 -17 5 -25 10 -8 5 -10 10
-5 10 6 0 17 -5 25 -10z m993 -4 c4 -10 1 -13 -8 -9 -8 3 -12 9 -9 14 7 12 11
11 17 -5z m73 -4 c-10 -2 -22 0 -28 6 -6 6 0 7 19 4 21 -5 23 -7 9 -10z
m-6124 -1 c-11 -7 -11 -9 2 -14 18 -7 48 2 42 12 -3 4 5 8 17 8 18 2 17 -1 -8
-17 -17 -11 -38 -17 -49 -14 -12 4 -16 2 -12 -5 4 -6 3 -11 -3 -11 -15 0 -24
20 -9 21 10 0 10 2 -1 6 -11 5 -11 7 0 14 8 5 19 9 24 9 6 0 4 -4 -3 -9z
m2955 2 c-4 -3 1 -12 11 -20 15 -13 15 -13 -6 -3 -19 9 -23 30 -5 30 4 0 3 -3
0 -7z m2003 -3 c-8 -5 -19 -10 -25 -10 -5 0 -3 5 5 10 8 5 20 10 25 10 6 0 3
-5 -5 -10z m59 -11 c-8 -5 -23 -9 -34 -8 -18 0 -17 1 5 13 26 15 52 10 29 -5z
m371 11 c0 -4 -16 -7 -35 -7 -19 0 -35 3 -35 7 0 3 16 6 35 6 19 0 35 -3 35
-6z m-4515 -19 c-3 -6 -11 -11 -17 -11 -6 0 -6 6 2 15 14 17 26 13 15 -4z
m3472 3 c-16 -8 -34 -13 -40 -10 -7 2 -4 5 6 5 9 1 17 6 17 11 0 6 10 10 23
10 21 -1 20 -2 -6 -16z m-3980 -16 c-3 -8 -6 -5 -6 6 -1 11 2 17 5 13 3 -3 4
-12 1 -19z m570 8 c0 -8 -6 -12 -15 -9 -8 3 -18 0 -22 -7 -4 -7 -14 -10 -21
-7 -9 3 -1 11 21 20 19 9 35 16 36 17 0 0 1 -6 1 -14z m466 -7 c5 -3 1 -9 -8
-12 -9 -4 -13 -3 -10 3 3 6 -4 10 -17 11 -22 0 -22 1 -3 8 11 5 22 6 25 2 3
-3 9 -9 13 -12z m4607 17 c0 -2 -7 -7 -16 -10 -8 -3 -12 -2 -9 4 6 10 25 14
25 6z m-6653 -12 c-3 -3 -12 -4 -19 -1 -8 3 -5 6 6 6 11 1 17 -2 13 -5z m2979
-9 c24 -18 7 -19 -26 0 -16 9 -19 14 -9 15 8 0 24 -7 35 -15z m1674 6 c0 -5
-9 -11 -21 -14 -16 -4 -18 -3 -8 9 13 16 29 19 29 5z m350 -5 c0 -3 -4 -8 -10
-11 -5 -3 -10 -1 -10 4 0 6 5 11 10 11 6 0 10 -2 10 -4z m1130 -4 c0 -5 -7 -9
-15 -9 -8 0 -12 4 -9 9 3 4 9 8 15 8 5 0 9 -4 9 -8z m-5910 -43 c9 -5 -2 -6
-25 -2 -22 3 -44 10 -50 14 -11 11 52 0 75 -12z m890 5 c0 -2 -9 -4 -21 -4
-11 0 -18 4 -14 10 5 8 35 3 35 -6z m63 9 c-7 -2 -19 -2 -25 0 -7 3 -2 5 12 5
14 0 19 -2 13 -5z m1964 1 c-3 -3 -12 -4 -19 -1 -8 3 -5 6 6 6 11 1 17 -2 13
-5z m2070 0 c-3 -3 -12 -4 -19 -1 -8 3 -5 6 6 6 11 1 17 -2 13 -5z m169 -3
c-8 -12 -46 -21 -46 -11 0 5 8 11 18 13 29 8 33 7 28 -2z m781 3 c-3 -3 -12
-4 -19 -1 -8 3 -5 6 6 6 11 1 17 -2 13 -5z m58 -4 c3 -6 -1 -7 -9 -4 -18 7
-21 14 -7 14 6 0 13 -4 16 -10z m-5786 -4 c-2 -2 -17 -6 -34 -10 -22 -5 -26
-4 -15 4 14 9 59 15 49 6z m2068 -2 c-3 -3 -12 -4 -19 -1 -8 3 -5 6 6 6 11 1
17 -2 13 -5z m750 0 c-3 -3 -12 -4 -19 -1 -8 3 -5 6 6 6 11 1 17 -2 13 -5z
m1156 -1 c-7 -2 -19 -2 -25 0 -7 3 -2 5 12 5 14 0 19 -2 13 -5z m124 1 c-3 -3
-12 -4 -19 -1 -8 3 -5 6 6 6 11 1 17 -2 13 -5z m930 0 c-3 -3 -12 -4 -19 -1
-8 3 -5 6 6 6 11 1 17 -2 13 -5z m-244 -11 c-7 -2 -21 -2 -30 0 -10 3 -4 5 12
5 17 0 24 -2 18 -5z m1240 0 c-7 -2 -21 -2 -30 0 -10 3 -4 5 12 5 17 0 24 -2
18 -5z"/>
<path d="M5307 773 c-3 -5 0 -19 8 -29 15 -20 18 -11 6 20 -4 11 -10 15 -14 9z"/>
<path d="M4970 685 c0 -8 2 -15 4 -15 2 0 6 7 10 15 3 8 1 15 -4 15 -6 0 -10
-7 -10 -15z"/>
<path d="M4876 538 c3 -5 10 -6 15 -3 13 9 11 12 -6 12 -8 0 -12 -4 -9 -9z"/>
<path d="M3065 888 c4 -63 4 -64 15 -48 5 8 7 23 4 34 -4 12 -2 16 5 12 7 -5
8 -1 4 10 -4 12 -3 15 5 10 8 -5 10 -2 5 9 -5 13 -7 14 -14 3 -8 -11 -10 -11
-18 0 -5 9 -7 -2 -6 -30z"/>
<path d="M5922 500 c7 -11 16 -20 20 -20 5 0 3 9 -4 20 -7 11 -16 20 -20 20
-5 0 -3 -9 4 -20z"/>
<path d="M1939 568 c0 -7 -2 -23 -3 -35 -2 -13 -1 -23 2 -23 12 0 29 35 24 52
-5 20 -22 25 -23 6z"/>
<path d="M1910 440 c0 -5 4 -10 9 -10 6 0 13 5 16 10 3 6 -1 10 -9 10 -9 0
-16 -4 -16 -10z"/>
<path d="M1948 403 c7 -3 16 -2 19 1 4 3 -2 6 -13 5 -11 0 -14 -3 -6 -6z"/>
<path d="M4936 994 c-3 -9 -2 -22 2 -31 6 -10 9 -5 9 16 0 35 -2 38 -11 15z"/>
<path d="M1610 600 c0 -5 5 -10 10 -10 6 0 10 5 10 10 0 6 -4 10 -10 10 -5 0
-10 -4 -10 -10z"/>
<path d="M5098 403 c7 -3 16 -2 19 1 4 3 -2 6 -13 5 -11 0 -14 -3 -6 -6z"/>
<path d="M1080 1932 c0 -5 7 -13 16 -16 10 -4 14 -1 12 6 -5 15 -28 23 -28 10z"/>
<path d="M8354 1918 c-4 -7 -3 -8 4 -4 7 4 12 2 12 -4 0 -6 5 -8 10 -5 11 7 4
25 -10 25 -5 0 -12 -5 -16 -12z"/>
<path d="M101 1724 c0 -11 3 -14 6 -6 3 7 2 16 -1 19 -3 4 -6 -2 -5 -13z"/>
<path d="M4030 1181 c0 -25 6 -27 13 -6 4 8 2 17 -3 20 -6 4 -10 -3 -10 -14z"/>
<path d="M6050 1193 c0 -4 5 -15 10 -23 8 -13 10 -13 10 2 0 9 -4 20 -10 23
-5 3 -10 3 -10 -2z"/>
<path d="M1151 1060 c0 -8 6 -28 14 -45 l14 -30 -4 27 c-4 32 -24 72 -24 48z"/>
<path d="M1862 800 c-7 -11 -8 -20 -3 -20 9 0 24 30 18 36 -1 2 -8 -6 -15 -16z"/>
<path d="M3551 738 c9 -16 29 -17 29 -2 0 3 -5 2 -12 -2 -7 -5 -9 -2 -6 8 4 8
0 15 -7 15 -10 0 -11 -5 -4 -19z"/>
<path d="M4757 677 c-3 -7 4 -19 14 -25 12 -8 19 -8 19 -2 0 5 -4 10 -10 10
-5 0 -7 7 -4 15 4 8 2 15 -4 15 -5 0 -12 -6 -15 -13z"/>
<path d="M4760 636 c0 -3 9 -10 20 -16 11 -6 20 -8 20 -6 0 3 -9 10 -20 16
-11 6 -20 8 -20 6z"/>
<path d="M6977 629 c7 -7 15 -10 18 -7 3 3 -2 9 -12 12 -14 6 -15 5 -6 -5z"/>
<path d="M8035 590 c-4 -6 -11 -8 -16 -5 -5 3 -6 -1 -3 -9 8 -20 18 -20 33 -2
8 9 8 16 2 20 -5 4 -12 2 -16 -4z"/>
<path d="M1417 555 c-4 -8 -3 -16 1 -19 4 -3 9 4 9 15 2 23 -3 25 -10 4z"/>
<path d="M813 484 c0 -16 13 -19 21 -5 3 5 0 11 -7 14 -8 3 -14 -1 -14 -9z"/>
<path d="M1128 413 c6 -2 18 -2 25 0 6 3 1 5 -13 5 -14 0 -19 -2 -12 -5z"/>
<path d="M2656 328 c3 -5 10 -6 15 -3 13 9 11 12 -6 12 -8 0 -12 -4 -9 -9z"/>
<path d="M6666 331 c-3 -5 1 -11 9 -15 15 -6 29 7 18 18 -9 9 -21 8 -27 -3z"/>
<path d="M1750 310 c-8 -5 -12 -12 -9 -15 8 -8 39 5 39 16 0 11 -11 11 -30 -1z"/>
<path d="M2058 183 c7 -3 16 -2 19 1 4 3 -2 6 -13 5 -11 0 -14 -3 -6 -6z"/>
<path d="M7178 183 c7 -3 16 -2 19 1 4 3 -2 6 -13 5 -11 0 -14 -3 -6 -6z"/>
</g>
</svg>
